<?xml version="1.0" encoding="UTF-8"?>
<svg id="Capa_1" xmlns="http://www.w3.org/2000/svg" version="1.1" viewBox="0 0 512 512">
  <!-- Generator: Adobe Illustrator 29.8.2, SVG Export Plug-In . SVG Version: 2.1.1 Build 3)  -->
  <defs>
    <style>
      .st0 {
        fill: #34c759;
      }
    </style>
  </defs>
  <path class="st0" d="M287.86.09c-8.25-.86-15.73,4.82-16.74,13.02-1.02,8.23,4.8,15.72,13.02,16.74,20.36,2.53,40.25,9.74,59.14,17.71,7.72,3.21,16.46-.41,19.66-8,3.21-7.65-.37-16.44-8-19.66C333.51,10.88,310.93,2.96,287.86.09h0Z"/>
  <path class="st0" d="M456.29,121.9c6.61-5.01,7.9-14.43,2.89-21.02-14.05-18.5-30.56-35.01-49.06-49.06-6.61-4.98-16-3.74-21.02,2.89-5.01,6.59-3.72,16.01,2.89,21.02,16.33,12.39,30.89,26.95,43.29,43.29,5.03,6.62,14.43,7.87,21.02,2.89Z"/>
  <path class="st0" d="M471.43,148.07c-7.63,3.22-11.21,12.01-8,19.66,7.97,18.88,16.15,39.77,18.68,60.14.98,7.96,8.18,14.02,16.74,13.02,8.22-1.02,14.05-8.51,13.02-16.74-2.87-23.07-11.77-46.65-20.79-68.07-3.22-7.63-12.03-11.16-19.66-8h0Z"/>
  <path class="st0" d="M157.07,19.91c-7.63,3.22-11.21,12.01-8,19.66,3.21,7.6,11.96,11.2,19.66,8,18.88-7.97,38.77-15.18,59.14-17.71,8.22-1.02,14.05-8.51,13.02-16.74-1.02-8.2-8.54-13.89-16.74-13.02-23.07,2.87-45.64,10.8-67.07,19.82h0Z"/>
  <path class="st0" d="M256,512c128.38,0,240.02-96.93,255.88-224.14,1.03-8.22-4.8-15.72-13.02-16.74-8.26-.92-15.73,4.8-16.74,13.02-14,112.24-112.84,197.86-226.12,197.86-124.07,0-226-101.93-226-226,0-54.68,21.7-107.9,57-148.54v4.97c0,8.29,6.71,15,15,15s15-6.71,15-15v-42.42c0-8.29-6.71-15-15-15h-42.44c-8.29,0-15,6.71-15,15s6.71,14.99,15,14.99h7.22C25.24,131.45,0,192.75,0,256,0,396.61,115.39,512,256,512h0Z"/>
  <path class="st0" d="M75,256c0,99.26,81.74,181,181,181s181-81.74,181-181-81.74-181-181-181-181,81.74-181,181ZM271,196c0-8.29,6.71-15,15-15s15,6.71,15,15v45h30v-45c0-8.29,6.71-15,15-15s15,6.71,15,15v120c0,8.29-6.71,15-15,15s-15-6.71-15-15v-45h-45c-8.29,0-15-6.71-15-15v-60ZM196,211c-8.28,0-15,6.72-15,15s-6.71,15-15,15-15-6.71-15-15c0-24.81,20.19-45,45-45s45,20.19,45,45c0,30-19.97,44.97-36.01,57-8.89,6.67-15.21,12-19.23,18h40.24c8.29,0,15,6.71,15,15s-6.71,15-15,15h-60c-8.29,0-15-6.71-15-15,0-30,19.97-44.97,36.01-57,15.32-11.5,23.99-18.71,23.99-33,0-8.28-6.72-15-15-15Z"/>
</svg>