<?xml version="1.0" encoding="UTF-8"?>
<svg id="Layer_1" xmlns="http://www.w3.org/2000/svg" version="1.1" viewBox="0 0 512 512">
  <!-- Generator: Adobe Illustrator 29.8.2, SVG Export Plug-In . SVG Version: 2.1.1 Build 3)  -->
  <defs>
    <style>
      .st0 {
        fill: #34c759;
      }
    </style>
  </defs>
  <path class="st0" d="M93.16,115.91l7.11-7.11v44.8h-4.98c-4.27,0-7.11,2.84-7.11,7.11s2.84,7.11,7.11,7.11h27.73c4.27,0,7.11-2.84,7.11-7.11s-2.84-7.11-7.11-7.11h-9.24v-61.87c0-2.84-1.42-5.69-4.27-6.4-2.84-1.42-5.69-.71-7.82,1.42l-19.2,19.2c-2.84,2.84-2.84,7.11,0,9.96,2.84,2.84,7.82,2.84,10.67,0Z"/>
  <path class="st0" d="M160.71,168.53c13.51,0,24.18-10.67,24.18-24.18s-10.67-24.18-24.18-24.18c-3.56,0-7.11.71-9.96,2.13v-12.8c0-5.69,4.27-9.96,9.96-9.96s9.96,4.27,9.96,9.96c0,4.27,2.84,7.11,7.11,7.11s7.11-2.84,7.11-7.11c0-13.51-10.67-24.18-24.18-24.18s-24.18,10.67-24.18,24.18v34.84c-.71,12.8,10.67,24.18,24.18,24.18ZM160.71,133.69c5.69,0,9.96,4.27,9.96,9.96s-4.27,9.96-9.96,9.96-9.96-4.27-9.96-9.96,4.27-9.96,9.96-9.96Z"/>
  <path class="st0" d="M204.09,162.13c.71.71,2.13.71,2.84.71,2.13,0,3.56-.71,4.98-2.13s2.13-2.84,2.13-4.98-.71-3.56-2.13-4.98c-2.13-2.13-4.98-2.84-7.82-1.42-.71,0-1.42.71-2.13,1.42-1.42,1.42-2.13,2.84-2.13,4.98s.71,3.56,2.13,4.98c.71,0,1.42.71,2.13,1.42h0Z"/>
  <path class="st0" d="M231.11,145.78c7.82,0,14.22-4.27,19.2-10.67,2.13-3.56,1.42-7.82-2.13-9.96s-7.82-1.42-9.96,2.13c-2.13,2.84-4.27,4.27-7.11,4.27-4.98,0-9.96-6.4-9.96-13.51s4.27-13.51,9.96-13.51c2.84,0,5.69,1.42,7.11,4.27,2.13,3.56,6.4,4.27,9.96,2.13s4.27-6.4,2.13-9.96c-4.27-7.11-11.38-10.67-19.2-10.67-13.51,0-24.18,12.09-24.18,27.73s10.67,27.73,24.18,27.73h0Z"/>
  <path class="st0" d="M433.78,375.47v-163.56c0-18.49-14.93-33.42-33.42-33.42s-33.42,14.93-33.42,33.42v163.56c-17.07,11.38-27.02,30.58-27.02,50.49,0,33.42,27.02,60.44,60.44,60.44s61.16-27.02,61.16-60.44c0-19.91-10.67-39.11-27.73-50.49h0ZM400.36,453.69c-14.93,0-27.02-12.09-27.02-27.02,0-12.8,8.53-23.47,19.91-26.31v-188.44c0-3.56,2.84-7.11,7.11-7.11s7.11,3.56,7.11,7.11v188.44c11.38,2.84,19.91,13.51,19.91,26.31.71,14.93-12.09,27.02-27.02,27.02Z"/>
  <path class="st0" d="M480,343.47h-27.02c-4.27,0-7.11,3.56-7.11,7.11,0,4.27,2.84,7.11,7.11,7.11h27.02c4.27,0,7.11-2.84,7.11-7.11,0-3.56-2.84-7.11-7.11-7.11Z"/>
  <path class="st0" d="M452.98,241.78h27.02c4.27,0,7.11-3.56,7.11-7.11s-2.84-7.11-7.11-7.11h-27.02c-4.27,0-7.11,3.56-7.11,7.11s2.84,7.11,7.11,7.11Z"/>
  <path class="st0" d="M452.98,329.24h13.51c4.27,0,7.11-3.56,7.11-7.11s-2.84-7.11-7.11-7.11h-13.51c-4.27,0-7.11,3.56-7.11,7.11s2.84,7.11,7.11,7.11h0Z"/>
  <path class="st0" d="M452.98,270.93h13.51c4.27,0,7.11-3.56,7.11-7.11,0-4.27-2.84-7.11-7.11-7.11h-13.51c-4.27,0-7.11,2.84-7.11,7.11s2.84,7.11,7.11,7.11h0Z"/>
  <path class="st0" d="M480,285.87h-27.02c-4.27,0-7.11,2.84-7.11,7.11,0,3.56,2.84,7.11,7.11,7.11h27.02c4.27,0,7.11-3.56,7.11-7.11,0-4.27-2.84-7.11-7.11-7.11Z"/>
  <path class="st0" d="M288.71,24.89H44.8c-11.38,0-19.91,9.24-19.91,19.91v415.29c0,11.38,9.24,19.91,19.91,19.91h243.91c11.38,0,19.91-9.24,19.91-19.91V44.8c.71-10.67-8.53-19.91-19.91-19.91h0ZM249.6,383.29l-13.51-7.82c-3.56-2.13-7.82-.71-9.96,2.84s-.71,7.82,2.84,9.96l13.51,7.82c-6.4,9.24-14.22,17.07-23.47,23.47l-7.82-13.51c-2.13-3.56-6.4-4.27-9.96-2.84-3.56,2.13-4.27,6.4-2.84,9.96l7.82,13.51c-9.96,4.98-20.62,7.82-32,8.53v-15.64c0-4.27-2.84-7.11-7.11-7.11s-7.11,2.84-7.11,7.11v15.64c-11.38-.71-22.04-3.56-32-8.53l7.82-13.51c2.13-3.56.71-7.82-2.84-9.96s-7.82-.71-9.96,2.84l-7.82,13.51c-9.24-6.4-17.07-14.22-23.47-23.47l13.51-7.82c3.56-2.13,4.27-6.4,2.84-9.96-2.13-3.56-6.4-4.27-9.96-2.84l-13.51,7.82c-4.98-9.96-7.82-20.62-8.53-32h15.64c4.27,0,7.11-2.84,7.11-7.11s-2.84-7.11-7.11-7.11h-15.64c.71-11.38,3.56-22.04,8.53-32l13.51,7.82c3.56,2.13,7.82.71,9.96-2.84s.71-7.82-2.84-9.96l-13.51-7.82c6.4-9.24,14.22-17.07,23.47-23.47l7.82,13.51c2.13,3.56,6.4,4.27,9.96,2.84,3.56-2.13,4.27-6.4,2.84-9.96l-7.82-13.51c9.96-4.98,20.62-7.82,32-8.53v15.64c0,4.27,2.84,7.11,7.11,7.11s7.11-2.84,7.11-7.11v-15.64c11.38.71,22.04,3.56,32,8.53l-7.82,13.51c-2.13,3.56-.71,7.82,2.84,9.96s7.82.71,9.96-2.84l7.82-13.51c9.24,6.4,17.07,14.22,23.47,23.47l-13.51,7.82c-3.56,2.13-4.27,6.4-2.84,9.96,2.13,3.56,6.4,4.27,9.96,2.84l13.51-7.82c4.98,9.96,7.82,20.62,8.53,32h-15.64c-4.27,0-7.11,2.84-7.11,7.11s2.84,7.11,7.11,7.11h15.64c-.71,11.38-4.27,22.04-8.53,32ZM275.2,194.84H58.31V58.31h216.89v136.53Z"/>
  <path class="st0" d="M174.22,321.42v-19.2c0-4.27-2.84-7.11-7.11-7.11s-7.11,2.84-7.11,7.11v19.2c-9.24,2.84-16.36,12.09-16.36,22.76,0,12.8,10.67,23.47,23.47,23.47s23.47-10.67,23.47-23.47c0-10.67-7.11-19.91-16.36-22.76ZM167.11,353.42c-4.98,0-9.24-4.27-9.24-9.24s4.27-9.24,9.24-9.24,9.24,4.27,9.24,9.24-4.27,9.24-9.24,9.24Z"/>
</svg>