<?xml version="1.0" encoding="UTF-8"?>
<svg id="Capa_1" xmlns="http://www.w3.org/2000/svg" version="1.1" viewBox="0 0 511.95 511.95">
  <!-- Generator: Adobe Illustrator 29.8.2, SVG Export Plug-In . SVG Version: 2.1.1 Build 3)  -->
  <defs>
    <style>
      .st0 {
        fill: #34c759;
      }
    </style>
  </defs>
  <path class="st0" d="M471.95,215.98c-16.75,0-31.12,10.36-37.07,25h-163.88v30h163.88c5.95,14.64,20.32,25,37.07,25,22.06,0,40-17.94,40-40s-17.94-40-40-40h0Z"/>
  <path class="st0" d="M356.85,127.12v-45.07c4.84-1.95,9.37-4.88,13.29-8.79,15.6-15.6,15.6-40.97,0-56.57-15.6-15.6-40.97-15.6-56.57,0-7.55,7.56-11.71,17.6-11.71,28.28s4.16,20.73,11.72,28.28c3.92,3.92,8.45,6.85,13.28,8.79v21.56l-55.86,13.77v30.9l85.85-21.16Z"/>
  <path class="st0" d="M387.39,207.09l27.95-27.95c4.8,2.04,10.08,3.18,15.61,3.18,22.06,0,40-17.94,40-40s-17.94-40-40-40-40,17.94-40,40c0,5.54,1.13,10.81,3.17,15.61l-19.16,19.16h-103.96v30h116.39Z"/>
  <path class="st0" d="M326.85,408.33v21.56c-4.84,1.95-9.37,4.88-13.29,8.79-7.55,7.55-11.71,17.6-11.71,28.29s4.16,20.73,11.71,28.29c7.8,7.8,18.04,11.7,28.28,11.7s20.49-3.9,28.29-11.7c15.6-15.6,15.6-40.97,0-56.57-3.92-3.92-8.45-6.85-13.28-8.8v-45.07l-85.85-21.16v30.9l55.85,13.77Z"/>
  <path class="st0" d="M374.96,334.87l19.16,19.16c-2.04,4.8-3.17,10.08-3.17,15.61,0,22.06,17.94,40,40,40s40-17.94,40-40-17.94-40-40-40c-5.54,0-10.81,1.13-15.61,3.17l-27.95-27.95h-116.39v30h103.96Z"/>
  <path class="st0" d="M184.63,23.04s0,0-.01,0h0c-31.07,0-56.36,25.28-56.36,56.36,0,15.48,6.15,29.91,17.31,40.64l-20.79,21.63c-15.23-14.64-24.35-33.78-26.17-54.54-23.98,6.47-41.67,28.4-41.67,54.4v50.53c0,23.73,19.31,43.04,43.03,43.04v30c-40.27,0-73.04-32.76-73.04-73.04v-4.78C11.2,193.31,0,208.58,0,226.42v59.11C0,308.66,18.81,327.47,41.94,327.47h15v42.96c0,25.99,17.7,47.92,41.67,54.4,1.82-20.76,10.93-39.9,26.17-54.54l20.79,21.63c-11.16,10.73-17.31,25.16-17.31,40.64,0,31.08,25.28,56.36,56.36,56.36h0s0,0,.01,0c31.07,0,56.34-25.27,56.34-56.34V79.39c0-31.07-25.27-56.34-56.34-56.34h0Z"/>
</svg>