<?xml version="1.0" encoding="UTF-8"?>
<svg id="Capa_1" xmlns="http://www.w3.org/2000/svg" version="1.1" viewBox="0 0 512 512">
  <!-- Generator: Adobe Illustrator 29.8.2, SVG Export Plug-In . SVG Version: 2.1.1 Build 3)  -->
  <defs>
    <style>
      .st0 {
        fill-rule: evenodd;
      }

      .st0, .st1 {
        fill: #34c759;
      }
    </style>
  </defs>
  <g id="Page-1">
    <g id="_x30_15---AI-Surveillance">
      <g id="Shape">
        <path class="st1" d="M154.52,338.95l9.02-2.93-4.45-13.91-26.27-15c-9.5-5.44-14.9-15.97-13.78-26.86s8.56-20.1,18.97-23.49l170.66-55.19c-3.18-5.92-9.38-9.6-16.1-9.55-5.05,0-9.14-4.09-9.14-9.14s4.09-9.14,9.14-9.14c14.63-.05,27.85,8.71,33.51,22.2l39.55-12.8c-.6-17.64-11.51-33.28-27.87-39.92-4.09-1.72-6.36-6.13-5.38-10.46.83-3.41,1.27-6.9,1.33-10.4-.06-12.72-5.7-24.77-15.42-32.97-2.86-2.49-3.89-6.49-2.58-10.06,1.31-3.55,1.99-7.31,2-11.1-.46-21.02-17.84-37.7-38.85-37.3-.29,0-.68.12-1.04.18-4.43.89-8.84-1.59-10.39-5.83C261.73,10.04,247.14-.04,230.86.03c-10.03-.4-19.8,3.25-27.11,10.13s-11.54,16.41-11.75,26.44v27.43c0,5.05-4.09,9.14-9.14,9.14s-9.14-4.09-9.14-9.14v-27.43c-.21-10.03-4.44-19.56-11.75-26.44S144.89-.37,134.86.03c-16.28-.07-30.87,10-36.57,25.25-1.55,4.24-5.96,6.72-10.39,5.83-.37-.08-.75-.14-1.12-.18-20.99-.36-38.32,16.31-38.77,37.3,0,3.79.69,7.56,2,11.12,1.31,3.56.29,7.56-2.58,10.06-9.72,8.19-15.36,20.24-15.42,32.95.05,3.51.5,7,1.33,10.41.98,4.33-1.28,8.74-5.38,10.46C11.22,150,.19,166.18.02,184.25c.03,11.26,4.42,22.07,12.25,30.17,1.67,1.79,2.56,4.17,2.46,6.61s-1.17,4.75-2.98,6.4C4.24,234.18-.02,243.82.02,253.91c.31,16.33,11.13,30.59,26.77,35.28,4.41,1.43,7.06,5.94,6.14,10.5-.59,2.74-.89,5.54-.91,8.35.51,25.36,21.45,45.52,46.81,45.07,3.07-.08,6.13-.41,9.14-.98,4.39-.71,8.65,1.84,10.1,6.04,5.51,15.57,20.28,25.95,36.8,25.84,1.73-.04,3.45-.2,5.16-.47l-3.21-9.99c-4.62-14.44,3.29-29.9,17.71-34.59h0ZM256,54.88c20.2,0,36.57,16.37,36.57,36.57,0,5.05-4.09,9.14-9.14,9.14s-9.14-4.09-9.14-9.14c0-10.1-8.19-18.28-18.28-18.28-5.05,0-9.14-4.09-9.14-9.14s4.09-9.14,9.14-9.14h0ZM210.29,109.74c-5.05,0-9.14-4.09-9.14-9.14s4.09-9.14,9.14-9.14h36.57c5.05,0,9.14,4.09,9.14,9.14s-4.09,9.14-9.14,9.14h-9.14v73.14h9.14c5.05,0,9.14,4.09,9.14,9.14s-4.09,9.14-9.14,9.14h-36.57c-5.05,0-9.14-4.09-9.14-9.14s4.09-9.14,9.14-9.14h9.14v-73.14h-9.14ZM36.58,192.02c0-20.2,16.37-36.57,36.57-36.57,5.05,0,9.14,4.09,9.14,9.14s-4.09,9.14-9.14,9.14c-10.1,0-18.28,8.19-18.28,18.28,0,5.05-4.09,9.14-9.14,9.14s-9.14-4.09-9.14-9.14h0ZM82.3,292.58c-5.05,0-9.14-4.09-9.14-9.14,0-10.1-8.19-18.28-18.28-18.28-5.05,0-9.14-4.09-9.14-9.14s4.09-9.14,9.14-9.14c20.2,0,36.57,16.37,36.57,36.57,0,5.05-4.09,9.14-9.14,9.14h0ZM91.44,91.45c0,5.05-4.09,9.14-9.14,9.14s-9.14-4.09-9.14-9.14c0-20.2,16.37-36.57,36.57-36.57,5.05,0,9.14,4.09,9.14,9.14s-4.09,9.14-9.14,9.14c-10.1,0-18.28,8.19-18.28,18.28ZM109.72,192.02v-64c0-20.2,16.37-36.57,36.57-36.57s36.57,16.37,36.57,36.57v64c0,5.05-4.09,9.14-9.14,9.14s-9.14-4.09-9.14-9.14v-27.43h-36.57v27.43c0,5.05-4.09,9.14-9.14,9.14s-9.14-4.09-9.14-9.14Z"/>
      </g>
      <g id="Path">
        <path class="st0" d="M164.58,128.02c0-10.1-8.19-18.28-18.28-18.28s-18.28,8.19-18.28,18.28v18.28h36.57v-18.28h0Z"/>
      </g>
      <g id="Path1" data-name="Path">
        <path class="st0" d="M160.13,356.35c-4.83,1.59-7.47,6.77-5.91,11.61l5.75,17.92c.74,2.31,2.36,4.23,4.52,5.35s4.66,1.32,6.98.59l9.02-2.92-11.35-35.45-9.02,2.91Z"/>
      </g>
      <g id="Path2" data-name="Path">
        <path class="st0" d="M137.2,282.12c-.43,3.71,1.41,7.32,4.66,9.14l86.98,49.68c2.26,1.28,4.95,1.56,7.42.77l216.49-70.02c4.91-1.61,7.6-6.89,6.01-11.81l-22.62-70.49c-.74-2.35-2.4-4.32-4.59-5.45-2.19-1.13-4.75-1.34-7.1-.59l-280.84,90.81c-3.55,1.11-6.08,4.25-6.41,7.95h0Z"/>
      </g>
      <g id="Path3" data-name="Path">
        <path class="st0" d="M439.43,353.55l-86.2,27.88c10.69,19.25,33.5,28.27,54.47,21.52,20.96-6.85,34.21-27.49,31.73-49.4h0Z"/>
      </g>
      <g id="Path4" data-name="Path">
        <path class="st0" d="M511.98,420.58h-9.14c-10.1,0-18.28,8.19-18.28,18.28v54.85c0,10.1,8.19,18.28,18.28,18.28h9.14v-91.42Z"/>
      </g>
      <g id="Path5" data-name="Path">
        <path class="st0" d="M466.69,284.57c-2.48,1.97-5.29,3.49-8.3,4.5l-216.49,70.02c-7.37,2.37-15.4,1.54-22.12-2.29l-37.2-21.24,18.11,56.45c1.49,4.71,4.8,8.64,9.21,10.89,4.36,2.25,9.43,2.65,14.09,1.12l236.97-76.64c9.75-3.21,15.09-13.68,11.96-23.46l-6.22-19.35Z"/>
      </g>
      <g id="Path6" data-name="Path">
        <path class="st0" d="M439.51,451.4l-14.5-36.17c-3.71,2.09-7.62,3.8-11.67,5.11-1.89.61-3.83.91-5.75,1.37l19.01,47.81c1.41,3.55,4.83,5.88,8.65,5.9h31.04v-18.28h-18.28c-3.73,0-7.09-2.27-8.48-5.74h0Z"/>
      </g>
    </g>
  </g>
</svg>