<?xml version="1.0" encoding="UTF-8"?>
<svg id="Layer_1" xmlns="http://www.w3.org/2000/svg" version="1.1" viewBox="0 0 64 64">
  <!-- Generator: Adobe Illustrator 29.8.2, SVG Export Plug-In . SVG Version: 2.1.1 Build 3)  -->
  <defs>
    <style>
      .st0 {
        fill: #34c759;
      }
    </style>
  </defs>
  <path class="st0" d="M58.68,19.5c0-2.87-2.34-5.2-5.21-5.2-1.59,0-3.03.72-3.98,1.85l-12.57-7.25c.19-.53.29-1.1.29-1.69,0-2.87-2.34-5.21-5.21-5.21s-5.21,2.34-5.21,5.21c0,.59.1,1.16.29,1.69l-12.57,7.25c-.95-1.13-2.39-1.85-3.98-1.85-2.87,0-5.21,2.33-5.21,5.2,0,2.54,1.82,4.65,4.21,5.11v14.78c-2.39.46-4.21,2.57-4.21,5.11,0,2.87,2.34,5.2,5.21,5.2,1.59,0,3.03-.72,3.98-1.85l12.57,7.25c-.19.53-.29,1.1-.29,1.69,0,2.87,2.34,5.21,5.21,5.21s5.21-2.34,5.21-5.21c0-.59-.1-1.16-.29-1.69l12.57-7.25c.95,1.13,2.39,1.85,3.98,1.85,2.87,0,5.21-2.33,5.21-5.2,0-2.54-1.82-4.65-4.21-5.11v-14.78c2.39-.46,4.21-2.57,4.21-5.11ZM35.92,53.37c-.95-1.1-2.36-1.79-3.92-1.79s-2.97.69-3.92,1.79l-12.59-7.27c.16-.5.25-1.04.25-1.6,0-2.54-1.82-4.65-4.21-5.11v-14.78c2.39-.46,4.21-2.57,4.21-5.11,0-.56-.09-1.1-.25-1.6l12.59-7.27c.95,1.1,2.36,1.79,3.92,1.79s2.97-.69,3.92-1.79l12.59,7.27c-.16.5-.25,1.04-.25,1.6,0,2.54,1.82,4.65,4.21,5.11v14.78c-2.39.46-4.21,2.57-4.21,5.11,0,.56.09,1.1.25,1.6l-12.59,7.27Z"/>
  <path class="st0" d="M32,16.53c-8.53,0-15.47,6.94-15.47,15.47s6.94,15.47,15.47,15.47,15.47-6.94,15.47-15.47-6.94-15.47-15.47-15.47ZM26.86,34.15l-1.14,2.49c-.23.5-.82.72-1.32.49-.51-.23-.73-.82-.5-1.33l4.57-9.95c.16-.36.52-.59.91-.59s.74.23.91.59l3.16,6.91,1.4,3.04c.23.51,0,1.1-.49,1.33-.13.06-.28.09-.41.09-.38,0-.75-.22-.91-.58l-1.14-2.49h-5.04ZM38.38,36.22c0,.55-.45,1-1,1s-1-.45-1-1v-9.96c0-.55.45-1,1-1s1,.45,1,1v9.96Z"/>
  <path class="st0" d="M27.78,32.15h3.2l-1.6-3.49-1.6,3.49Z"/>
</svg>