<?xml version="1.0" encoding="UTF-8"?>
<svg id="o" xmlns="http://www.w3.org/2000/svg" version="1.1" viewBox="0 0 48 48">
  <!-- Generator: Adobe Illustrator 29.8.2, SVG Export Plug-In . SVG Version: 2.1.1 Build 3)  -->
  <defs>
    <style>
      .st0 {
        fill: #34c759;
        fill-rule: evenodd;
      }
    </style>
  </defs>
  <path class="st0" d="M31.41,11.49c-2.47-.5-4.83-1.32-6.97-2.38-.28-.14-.61-.14-.89,0-2.14,1.07-4.5,1.88-6.97,2.38l-2.71-4.97c-.18-.32-.51-.52-.88-.52h-3.17c-.41-1.16-1.52-2-2.83-2-1.66,0-3,1.34-3,3s1.34,3,3,3c1.31,0,2.42-.84,2.83-2h2.58l2.09,3.83c-1.62.2-3.28.27-4.94.17-.52-.03-.98.35-1.05.87-.23,1.76-.39,3.41-.48,4.96l-2.03-.58v-1.25c0-.55-.45-1-1-1s-1,.45-1,1v2c0,.45.3.84.73.96l3.22.92c-.04,2.08.06,3.96.29,5.65s-3.5,1-3.5,1c-.43.12-.73.52-.73.96v2c0,.55.45,1,1,1s1-.45,1-1v-1.25l2.57-.74c.49,2.32,1.26,4.26,2.26,5.88l.06.09-4.41,2.65c-.3.18-.49.51-.49.86v1.17c-1.16.41-2,1.52-2,2.83,0,1.66,1.34,3,3,3s3-1.34,3-3c0-1.31-.84-2.42-2-2.83v-.6l4.08-2.45c1.25,1.47,2.76,2.63,4.51,3.55l-1.37,1.71c-.14.18-.22.4-.22.62v2c0,.55.45,1,1,1s1-.45,1-1v-1.65l1.47-1.83c1.62.64,3.41,1.12,5.35,1.47.12.02.24.02.36,0,1.94-.35,3.73-.83,5.35-1.47l1.47,1.83v1.65c0,.55.45,1,1,1s1-.45,1-1v-2c0-.23-.08-.45-.22-.62l-1.37-1.71c1.75-.91,3.26-2.07,4.51-3.55l4.08,2.45v.6c-1.16.41-2,1.52-2,2.83,0,1.66,1.34,3,3,3s3-1.34,3-3c0-1.31-.84-2.42-2-2.83v-1.17c0-.35-.18-.68-.49-.86l-4.41-2.65.06-.09c1.01-1.62,1.77-3.56,2.26-5.88l2.57.74v1.25c0,.55.45,1,1,1s1-.45,1-1v-2c0-.45-.3-.84-.73-.96l-3.5-1h0c.23-1.7.32-3.58.29-5.66l3.22-.92c.43-.12.73-.52.73-.96v-2c0-.55-.45-1-1-1s-1,.45-1,1v1.25l-2.03.58c-.09-1.55-.25-3.2-.48-4.96-.07-.52-.53-.9-1.05-.87-1.66.09-3.32.03-4.94-.17l2.09-3.83h2.58c.41,1.16,1.52,2,2.83,2,1.66,0,3-1.34,3-3s-1.34-3-3-3c-1.31,0-2.42.84-2.83,2h-3.17c-.37,0-.7.2-.88.52l-2.71,4.97h.02ZM29,17v-2c0-.55-.45-1-1-1s-1,.45-1,1v2h-2v-2c0-.55-.45-1-1-1s-1,.45-1,1v2h-2v-2c0-.55-.45-1-1-1s-1,.45-1,1v2h-.99c-1.66,0-3.01,1.34-3.01,3h-2c-.55,0-1,.45-1,1s.45,1,1,1h2v2h-2c-.55,0-1,.45-1,1s.45,1,1,1h2v2h-2c-.55,0-1,.45-1,1s.45,1,1,1h2c0,.79.32,1.56.88,2.12.57.56,1.33.88,2.13.88h.99v2c0,.55.45,1,1,1s1-.45,1-1v-2h2v2c0,.55.45,1,1,1s1-.45,1-1v-2h2v2c0,.55.45,1,1,1s1-.45,1-1v-2h.99c1.66,0,3.01-1.34,3.01-3h2c.55,0,1-.45,1-1s-.45-1-1-1h-2v-2h2c.55,0,1-.45,1-1s-.45-1-1-1h-2v-2h2c.55,0,1-.45,1-1s-.45-1-1-1h-2c0-.79-.32-1.56-.88-2.12-.57-.56-1.33-.88-2.13-.88h-.99ZM18.01,19h11.97c.27,0,.53.11.72.3s.3.45.3.72v9.97c0,.56-.45,1.01-1.01,1.01h-11.97c-.27,0-.53-.11-.72-.3s-.3-.45-.3-.72v-9.97c0-.56.45-1.01,1.01-1.01ZM23.91,28l.16.38c.21.51.8.75,1.31.54s.75-.8.54-1.31l-2.5-6c-.16-.37-.52-.62-.92-.62s-.77.24-.92.62l-2.5,6c-.21.51.03,1.09.54,1.31.51.21,1.09-.03,1.31-.54l.16-.38h2.83-.01ZM28.99,28v-6c0-.55-.45-1-1-1s-1,.45-1,1v6c0,.55.45,1,1,1s1-.45,1-1ZM23.07,26h-1.17l.58-1.4.58,1.4h.01Z"/>
</svg>