<?xml version="1.0" encoding="UTF-8"?>
<svg id="Layer_1" xmlns="http://www.w3.org/2000/svg" version="1.1" viewBox="0 0 512 512">
  <!-- Generator: Adobe Illustrator 29.8.2, SVG Export Plug-In . SVG Version: 2.1.1 Build 3)  -->
  <defs>
    <style>
      .st0 {
        fill: #34c759;
      }
    </style>
  </defs>
  <g id="_x31_2">
    <path class="st0" d="M476.77,166.36c-3.02-4-7.75-6.36-12.77-6.36h-217.8l-7.02-21.06c-2.18-6.53-8.29-10.94-15.18-10.94h-48c-8.84,0-16,7.16-16,16s7.16,16,16,16h36.47l44.35,133.06c2.18,6.53,8.29,10.94,15.18,10.94h11.51l-4.35,17.4c-13.33,3.87-23.16,16.05-23.16,30.6,0,17.64,14.35,32,32,32,11.79,0,22-6.48,27.55-16h56.9c5.55,9.52,15.76,16,27.55,16,17.65,0,32-14.36,32-32s-14.35-32-32-32c-11.79,0-22,6.48-27.55,16h-56.9c-1.48-2.54-3.22-4.9-5.32-6.94l6.27-25.06h115.51c7.14,0,13.42-4.73,15.38-11.61l32-112c1.38-4.83.41-10.02-2.61-14.03ZM438.22,208h-15.36l4.57-16h15.36l-4.57,16ZM374.86,208h-16l4.57-16h16l-4.57,16ZM395.43,192h16l-4.57,16h-16l4.57-16ZM342.86,208h-16l4.57-16h16l-4.57,16ZM310.86,208h-16l4.57-16h16l-4.57,16ZM278.86,208h-16l4.57-16h16l-4.57,16ZM267.53,224h6.75l-3.12,10.91-3.63-10.91ZM290.29,224h16l-4.57,16h-16l4.57-16ZM322.29,224h16l-4.57,16h-16l4.57-16ZM354.29,224h16l-4.57,16h-16l4.57-16ZM361.14,256l-4.57,16h-16l4.57-16h16ZM377.14,256h16l-4.57,16h-16l4.57-16ZM381.71,240l4.57-16h16l-4.57,16h-16ZM418.29,224h15.36l-4.57,16h-15.36l4.57-16ZM279.78,260.75l1.36-4.75h16l-4.57,16h-9.04l-3.75-11.25ZM308.57,272l4.57-16h16l-4.57,16h-16ZM404.57,272l4.57-16h15.36l-4.57,16h-15.36Z"/>
    <path class="st0" d="M240,352c0-14.55,6.61-27.43,16.83-36.23-6.93-3.79-12.57-9.78-15.19-17.64l-40.7-122.12h-24.94c-17.65,0-32-14.36-32-32s14.35-32,32-32h48c13.79,0,25.99,8.8,30.36,21.88l3.37,10.12h30.27v-64c0-8.84-7.16-16-16-16h-64c0,17.67-14.33,32-32,32s-32-14.33-32-32h-64c-8.84,0-16,7.16-16,16v352c0,8.84,7.16,16,16,16h192c8.84,0,16-7.16,16-16v-32c-26.51,0-48-21.49-48-48Z"/>
    <path class="st0" d="M304,397.06v34.94c0,17.65-14.35,32-32,32H80c-17.65,0-32-14.35-32-32V80c0-17.65,14.35-32,32-32h192c17.65,0,32,14.35,32,32v64h16v-64c0-26.47-21.53-48-48-48H80c-26.47,0-48,21.53-48,48v352c0,26.47,21.53,48,48,48h192c26.47,0,48-21.53,48-48v-44.46c-4.62,4.16-10.02,7.39-16,9.52Z"/>
  </g>
</svg>