<?xml version="1.0" encoding="UTF-8"?>
<svg id="Layer_1" xmlns="http://www.w3.org/2000/svg" version="1.1" viewBox="0 0 512 512">
  <!-- Generator: Adobe Illustrator 29.8.2, SVG Export Plug-In . SVG Version: 2.1.1 Build 3)  -->
  <defs>
    <style>
      .st0 {
        fill: #34c759;
      }
    </style>
  </defs>
  <path class="st0" d="M431.28,402.33c-10.31-30.69-51.41-49.9-80.71-62.78-11.48-5.03-43.26-13.56-47.08-28.01-1.37-5.21-1.18-10.12-.06-14.82-1.77.34-3.56.54-5.41.54h-19.09c-15.24,0-27.63-12.4-27.63-27.63s12.39-27.6,27.63-27.6h19.09c6.31,0,12.29,2.14,17.11,5.94,7.07-.94,13.89-2.45,20.25-4.43,8.35-17.5,14.86-38.42,16.32-56.42,6.23-77.05-41-122.12-108.72-114.33-49.24,5.67-78.65,42.38-81.83,89.65-3.22,48.18,14.65,83.76,33.62,109.86,8.31,11.41,17.04,18.75,15.7,32.5-1.56,16.26-18.94,20.79-31.38,25.79-14.74,5.92-30.61,14.9-38.1,19.05-25.82,14.26-54.16,31.43-60.53,54.92-14.11,52.06,33.53,67.83,72.86,75.11,33.75,6.23,71.81,6.72,103.11,6.72,56.62,0,158.44-2.27,174.86-44.83,4.67-12.08,2.67-31.32,0-39.23h0Z"/>
  <path class="st0" d="M310.1,261.85c-2.59-3.95-7.02-6.57-12.07-6.57h-19.09c-7.97,0-14.39,6.44-14.39,14.36s6.43,14.4,14.39,14.4h19.09c5.58,0,10.31-3.18,12.69-7.78,26.62-2.09,49.77-10.22,66.02-22.23,3.73,2.41,8.15,3.81,12.91,3.81h1.2c13.27,0,24-10.74,24-24.03v-47.96c0-9.55-5.6-17.8-13.68-21.63-3.52-77.02-67.28-138.63-145.17-138.63S114.34,87.21,110.84,164.23c-8.09,3.83-13.69,12.07-13.69,21.63v47.96c0,13.29,10.74,24.03,23.98,24.03h1.21c13.25,0,24-10.74,24-24.03v-47.96c0-9.42-5.44-17.54-13.35-21.46,3.43-64.9,57.28-116.62,123.01-116.62s119.59,51.73,123,116.62c-7.9,3.93-13.34,12.05-13.34,21.46v47.96c0,3.18.62,6.15,1.71,8.92-13.99,10.01-34.35,17.14-57.27,19.11h0Z"/>
</svg>