<?xml version="1.0" encoding="UTF-8"?>
<svg id="Layer_3" xmlns="http://www.w3.org/2000/svg" version="1.1" viewBox="0 0 512 512">
  <!-- Generator: Adobe Illustrator 29.8.2, SVG Export Plug-In . SVG Version: 2.1.1 Build 3)  -->
  <defs>
    <style>
      .st0 {
        fill: #34c759;
      }
    </style>
  </defs>
  <path class="st0" d="M240,88h-64v32h64v24l48-40-48-40v24Z"/>
  <path class="st0" d="M392,216v48h-24l40,48,40-48h-24v-48h-32Z"/>
  <path class="st0" d="M478.14,96c-3.74,0-6.97-2.59-7.8-6.23-1.59-7.01-4.37-13.7-8.22-19.78-2-3.16-1.53-7.29,1.11-9.93l6.98-6.98-11.31-11.31-6.98,6.98c-2.64,2.64-6.76,3.1-9.92,1.11-6.08-3.84-12.78-6.61-19.79-8.21-3.64-.83-6.22-4.07-6.22-7.81v-9.84h-16v9.84c0,3.74-2.59,6.98-6.23,7.81-7.01,1.59-13.71,4.37-19.79,8.21-3.16,1.99-7.28,1.53-9.92-1.11l-6.98-6.98-11.3,11.31,6.98,6.98c2.64,2.64,3.1,6.77,1.1,9.93-3.84,6.08-6.62,12.77-8.22,19.78-.83,3.64-4.06,6.23-7.8,6.23h-9.84v16h9.84c3.74,0,6.97,2.59,7.8,6.23,1.59,7.01,4.37,13.7,8.22,19.78,2,3.16,1.54,7.28-1.1,9.93l-6.98,6.97,11.31,11.31,6.97-6.98c2.64-2.64,6.76-3.1,9.92-1.1,6.08,3.84,12.78,6.62,19.79,8.21,3.65.83,6.23,4.07,6.23,7.81v9.84h16v-9.84c0-3.74,2.58-6.98,6.22-7.81,7.01-1.59,13.71-4.37,19.79-8.21,3.16-1.99,7.28-1.53,9.92,1.1l6.98,6.98,11.31-11.3-6.98-6.98c-2.65-2.64-3.11-6.77-1.11-9.93,3.84-6.08,6.62-12.77,8.22-19.78.83-3.64,4.06-6.23,7.79-6.23h9.86v-16h-9.86ZM408,152c-26.51,0-48-21.49-48-48s21.49-48,48-48,48,21.49,48,48-21.49,48-48,48Z"/>
  <path class="st0" d="M136,140.2v-76.2h-32c-4.42,0-8-3.58-8-8V24H24v176h64.47c3.12-27.38,21.56-50.58,47.53-59.8ZM56,40h24v16h-24v-16ZM40,72h80v16H40v-16ZM40,104h80v16H40v-16ZM40,136h64v16H40v-16Z"/>
  <path class="st0" d="M111.99,35.32v12.67h12.67l-12.67-12.67Z"/>
  <path class="st0" d="M216,208c0-30.93-25.07-56-56-56s-56,25.07-56,56,25.07,56,56,56c30.92-.03,55.97-25.08,56-56ZM152,208v-32h16v24h32v16h-40c-4.42,0-8-3.58-8-8Z"/>
  <path class="st0" d="M96,344v-32H24v176h112v-136h-32c-4.42,0-8-3.58-8-8ZM56,328h24v16h-24v-16ZM120,440H40v-16h80v16ZM120,408H40v-16h80v16ZM120,376H40v-16h80v16Z"/>
  <path class="st0" d="M231.99,335.99h12.68l-12.68-12.68v12.68Z"/>
  <path class="st0" d="M216,344v-32h-72v20.69l5.65,5.65c1.51,1.5,2.35,3.54,2.35,5.66v144h104v-136h-32c-4.42,0-8-3.58-8-8ZM176,328h24v16h-24v-16ZM240,440h-80v-16h80v16ZM240,408h-80v-16h80v16ZM240,376h-80v-16h80v16Z"/>
  <path class="st0" d="M111.99,335.99h12.68l-12.68-12.68v12.68Z"/>
  <path class="st0" d="M408,344c-39.76,0-72,32.24-72,72s32.24,72,72,72,72-32.24,72-72c-.04-39.75-32.25-71.96-72-72ZM461.65,405.66l-64,64c-3.12,3.13-8.19,3.13-11.31,0h0s-40-40.01-40-40.01c-3.13-3.12-3.13-8.19,0-11.31h0s24-24.01,24-24.01c3.12-3.13,8.19-3.13,11.31,0h0s10.35,10.35,10.35,10.35l34.34-34.34c3.12-3.13,8.19-3.13,11.31,0h0s24,24.01,24,24.01c3.12,3.12,3.12,8.19,0,11.31,0,0,0,0,0,0Z"/>
  <path class="st0" d="M397.65,421.66c-3.12,3.13-8.19,3.13-11.31,0h0s-10.33-10.35-10.33-10.35l-12.7,12.69,28.7,28.68,52.67-52.68-12.67-12.69-34.35,34.34Z"/>
  <path class="st0" d="M55.99,215.99h15.99v80h-15.99v-80Z"/>
</svg>