<?xml version="1.0" encoding="UTF-8"?>
<svg id="Capa_1" xmlns="http://www.w3.org/2000/svg" version="1.1" viewBox="0 0 512 512">
  <!-- Generator: Adobe Illustrator 29.8.2, SVG Export Plug-In . SVG Version: 2.1.1 Build 3)  -->
  <defs>
    <style>
      .st0 {
        fill: #34c759;
      }
    </style>
  </defs>
  <path class="st0" d="M23.27,186.18c-13.96,0-23.27-9.31-23.27-23.27v-93.09C0,30.25,30.25,0,69.82,0h93.09c13.96,0,23.27,9.31,23.27,23.27s-9.31,23.27-23.27,23.27h-93.09c-13.96,0-23.27,9.31-23.27,23.27v93.09c0,13.96-9.31,23.27-23.27,23.27h0Z"/>
  <path class="st0" d="M488.73,186.18c-13.96,0-23.27-9.31-23.27-23.27v-93.09c0-13.96-9.31-23.27-23.27-23.27h-93.09c-13.96,0-23.27-9.31-23.27-23.27S335.13,0,349.09,0h93.09C481.74,0,512,30.25,512,69.82v93.09c0,13.96-9.31,23.27-23.27,23.27Z"/>
  <path class="st0" d="M162.91,512h-93.09c-39.56,0-69.82-30.25-69.82-69.82v-93.09c0-13.96,9.31-23.27,23.27-23.27s23.27,9.31,23.27,23.27v93.09c0,13.96,9.31,23.27,23.27,23.27h93.09c13.96,0,23.27,9.31,23.27,23.27,0,13.96-9.31,23.27-23.27,23.27Z"/>
  <path class="st0" d="M442.18,512h-93.09c-13.96,0-23.27-9.31-23.27-23.27s9.31-23.27,23.27-23.27h93.09c13.96,0,23.27-9.31,23.27-23.27v-93.09c0-13.96,9.31-23.27,23.27-23.27s23.27,9.31,23.27,23.27v93.09c0,39.56-30.26,69.82-69.82,69.82h0Z"/>
  <path class="st0" d="M209.45,232.73h-93.09c-13.96,0-23.27-9.31-23.27-23.27v-93.09c0-13.96,9.31-23.27,23.27-23.27h93.09c13.96,0,23.27,9.31,23.27,23.27v93.09c0,13.96-9.31,23.27-23.27,23.27ZM139.64,186.18h46.55v-46.55h-46.55v46.55Z"/>
  <path class="st0" d="M209.45,418.91h-93.09c-13.96,0-23.27-9.31-23.27-23.27v-93.09c0-13.96,9.31-23.27,23.27-23.27h93.09c13.96,0,23.27,9.31,23.27,23.27v93.09c0,13.96-9.31,23.27-23.27,23.27h0ZM139.64,372.36h46.55v-46.55h-46.55v46.55Z"/>
  <path class="st0" d="M395.64,232.73h-93.09c-13.96,0-23.27-9.31-23.27-23.27v-93.09c0-13.96,9.31-23.27,23.27-23.27h93.09c13.96,0,23.27,9.31,23.27,23.27v93.09c0,13.96-9.31,23.27-23.27,23.27h0ZM325.82,186.18h46.55v-46.55h-46.55v46.55Z"/>
  <path class="st0" d="M302.55,349.09c-13.96,0-23.27-9.31-23.27-23.27v-23.27c0-13.96,9.31-23.27,23.27-23.27s23.27,9.31,23.27,23.27v23.27c0,13.96-9.31,23.27-23.27,23.27Z"/>
  <path class="st0" d="M395.64,325.82h-23.27c-13.96,0-23.27-9.31-23.27-23.27s9.31-23.27,23.27-23.27h23.27c13.96,0,23.27,9.31,23.27,23.27s-9.31,23.27-23.27,23.27Z"/>
  <path class="st0" d="M395.64,418.91h-69.82c-13.96,0-23.27-9.31-23.27-23.27s9.31-23.27,23.27-23.27h69.82c13.96,0,23.27,9.31,23.27,23.27s-9.31,23.27-23.27,23.27h0Z"/>
</svg>