<?xml version="1.0" encoding="UTF-8"?>
<svg id="Layer_1" xmlns="http://www.w3.org/2000/svg" version="1.1" viewBox="0 0 512 512">
  <!-- Generator: Adobe Illustrator 29.8.2, SVG Export Plug-In . SVG Version: 2.1.1 Build 3)  -->
  <defs>
    <style>
      .st0 {
        fill: #34c759;
      }
    </style>
  </defs>
  <g id="calendar">
    <path class="st0" d="M480,110.88v65.12H32v-65.12c.34-26.19,21.81-47.16,48-46.88h32v32c0,26.51,21.49,48,48,48s48-21.49,48-48v-32h96v32c0,26.51,21.49,48,48,48s48-21.49,48-48v-32h32c26.19-.28,47.66,20.69,48,46.88Z"/>
    <path class="st0" d="M32,208v257.12c.34,26.19,21.81,47.16,48,46.88h352c26.19.28,47.66-20.69,48-46.88V208H32ZM176,432c-.03,8.83-7.17,15.97-16,16h-32c-8.83-.03-15.97-7.17-16-16v-32c.03-8.83,7.17-15.97,16-16h32c8.83.03,15.97,7.17,16,16v32ZM176,320c-.03,8.83-7.17,15.97-16,16h-32c-8.83-.03-15.97-7.17-16-16v-32c.03-8.83,7.17-15.97,16-16h32c8.83.03,15.97,7.17,16,16v32ZM288,432c-.03,8.83-7.17,15.97-16,16h-32c-8.83-.03-15.97-7.17-16-16v-32c.03-8.83,7.17-15.97,16-16h32c8.83.03,15.97,7.17,16,16v32ZM288,320c-.03,8.83-7.17,15.97-16,16h-32c-8.83-.03-15.97-7.17-16-16v-32c.03-8.83,7.17-15.97,16-16h32c8.83.03,15.97,7.17,16,16v32ZM400,320c-.03,8.83-7.17,15.97-16,16h-32c-8.83-.03-15.97-7.17-16-16v-32c.03-8.83,7.17-15.97,16-16h32c8.83.03,15.97,7.17,16,16v32Z"/>
    <path class="st0" d="M176,64v32c0,8.84-7.16,16-16,16s-16-7.16-16-16v-32c0-8.84,7.16-16,16-16s16,7.16,16,16Z"/>
    <path class="st0" d="M368,64v32c0,8.84-7.16,16-16,16s-16-7.16-16-16v-32c0-8.84,7.16-16,16-16s16,7.16,16,16Z"/>
  </g>
</svg>