<?xml version="1.0" encoding="UTF-8"?>
<svg id="Glyph" xmlns="http://www.w3.org/2000/svg" version="1.1" viewBox="0 0 512 512">
  <!-- Generator: Adobe Illustrator 29.8.2, SVG Export Plug-In . SVG Version: 2.1.1 Build 3)  -->
  <defs>
    <style>
      .st0 {
        fill: #34c759;
      }
    </style>
  </defs>
  <path class="st0" d="M446.48,375.76c-15.39.01-28.78,10.56-32.4,25.52h-54.56c-10.36-.02-18.74-8.44-18.72-18.8v-76.8h47.2c121.84-4.96,122.16-178.64.24-184.08-1.44-54.48-66.56-88.08-111.76-56.88C225.04-7.84,109.6,28.56,109.36,117.84c-.38,22.04,7.53,43.43,22.16,59.92,7.04,4.96,6.48,15.76-3.12,16.32-2.07.02-4.05-.79-5.52-2.24-17.72-17.18-27.81-40.76-28-65.44C-2.72,160.88,19.44,303.6,124.08,305.68h47.12v76.8c.02,10.36-8.36,18.78-18.72,18.8h-54.56c-4.42-17.94-22.54-28.89-40.47-24.47s-28.89,22.54-24.47,40.47c4.42,17.94,22.54,28.89,40.47,24.47,12.07-2.97,21.5-12.4,24.47-24.47h54.56c19.19-.05,34.72-15.61,34.72-34.8v-76.8h58.56v101.28c-17.98,4.42-28.97,22.57-24.55,40.55,4.42,17.98,22.57,28.97,40.55,24.55,17.98-4.42,28.97-22.57,24.55-40.55-2.98-12.11-12.44-21.57-24.55-24.55v-101.28h63.04v76.8c0,19.19,15.53,34.75,34.72,34.8h54.56c4.42,17.98,22.57,28.97,40.55,24.55s28.97-22.57,24.55-40.55c-3.7-15.04-17.22-25.59-32.7-25.52h0Z"/>
</svg>