<?xml version="1.0" encoding="UTF-8"?>
<svg id="Capa_1" xmlns="http://www.w3.org/2000/svg" version="1.1" viewBox="0 0 512 512">
  <!-- Generator: Adobe Illustrator 29.8.2, SVG Export Plug-In . SVG Version: 2.1.1 Build 3)  -->
  <defs>
    <style>
      .st0 {
        fill: #34c759;
      }
    </style>
  </defs>
  <path class="st0" d="M421,316h-5.14c-12.52-35.4-46.45-60-84.86-60s-72.76,24.92-85.09,60.67c-31.64,4.28-57.09,28.37-63.4,59.33h-1.51c-33.09,0-60,26.91-60,60s26.91,60,60,60h240c49.63,0,91-40.37,91-90s-41.37-90-91-90Z"/>
  <path class="st0" d="M391,16H0v120h391V16ZM91,106h-30v-30h30v30ZM151,106h-30v-30h30v30ZM211,106h-30v-30h30v30Z"/>
  <path class="st0" d="M331,226c21.55,0,42.13,5.84,60,16.18v-76.18H0v90h251.98c21.42-18.79,49.2-30,79.02-30ZM91,226h-30v-30h30v30ZM151,226h-30v-30h30v30ZM211,226h-30v-30h30v30Z"/>
  <path class="st0" d="M159.98,348.48c12.17-27.47,35.67-48.56,64.44-57.63.88-1.69,2-3.21,2.95-4.85H0v120h96.16c10.09-28.46,34.1-50.39,63.82-57.52ZM121,316h30v30h-30v-30ZM91,346h-30v-30h30v30Z"/>
</svg>