<?xml version="1.0" encoding="UTF-8"?>
<svg id="Layer_1" xmlns="http://www.w3.org/2000/svg" version="1.1" viewBox="0 0 512 512">
  <!-- Generator: Adobe Illustrator 29.8.2, SVG Export Plug-In . SVG Version: 2.1.1 Build 3)  -->
  <defs>
    <style>
      .st0 {
        fill: #34c759;
      }
    </style>
  </defs>
  <path class="st0" d="M397.18,420.43c3.17,6.99,1.69,15.33-3.74,20.76-7.19,7.19-18.93,7.2-26.13,0l-78.83-78.83c-3.12-3.12-8.19-3.12-11.31,0-3.12,3.12-3.12,8.19,0,11.31l78.83,78.83c7.14,7.14,7.14,18.99,0,26.13s-18.95,7.17-26.13,0l-83.3-83.3c-3.12-3.12-8.19-3.12-11.31,0s-3.12,8.19,0,11.31l62.87,62.87c7.14,7.14,7.14,18.99,0,26.13-7.17,7.17-18.96,7.17-26.13,0l-67.34-67.34c-3.12-3.12-8.19-3.12-11.31,0s-3.12,8.19,0,11.31l31.3,31.3c7.19,7.19,7.19,18.93,0,26.13-7.19,7.19-18.94,7.19-26.13,0l-104.4-104.4,32.63-163.78h69.35l-24.2,20.2c-4.83,4.04-8.58,8.98-10.75,14.58-2.11,5.44-2.71,11.35-1.37,17.5l18.85,86.36c.99,4.61,5.75,7.34,10.22,5.93,49.9-12.52,52.83-45.7,56.01-81.8.04-.42.46-6.91.73-7.35l1.05-.08c2.23-.16,5.29.48,9.06,1.99,7.65,3.05,17.3,9.33,28.07,19.13l113.42,115.08ZM353.96,242.55c-21-2.37-43.66-11.45-68.25-31.74-6.47-5.34-14-8.26-21.43-8.45-7.01-.18-14.01,2.09-20,7.1l-62.13,51.88c-2.84,2.37-4.98,5.12-6.13,8.08-1,2.56-1.27,5.39-.62,8.38l17.01,77.95c31.74-11.33,34.03-37.33,36.51-65.44.43-4.88.42-9.9,3.04-14.22,2.85-4.7,7.49-7.32,13.55-7.76,4.52-.33,9.97.68,16.06,3.11,9.38,3.74,20.77,11.04,32.98,22.16,36.1,32.86,74.38,75.46,109.26,110.84l13.7-13.7-29.84-149.77c-10.67,2.13-21.88,2.93-33.7,1.6h0ZM496.5,383.81l-34.44-172.87c-.95-4.76-5.62-7.88-10.37-6.93l-44.32,8.83c-4.76.95-7.88,5.62-6.93,10.37l34.44,172.87c.95,4.76,5.61,7.88,10.37,6.93l44.32-8.83c4.76-.95,7.88-5.62,6.93-10.37ZM104.63,212.84l-44.32-8.83c-4.76-.95-9.43,2.17-10.37,6.93L15.5,383.81c-.95,4.76,2.17,9.42,6.93,10.37l44.32,8.83c4.76.95,9.43-2.17,10.37-6.93l34.44-172.87c.95-4.76-2.17-9.43-6.93-10.37h0ZM75.84,169.42h84.42c4.52-20.9,15.72-39.27,31.17-52.86-12.85-11.88-30.01-19.16-48.79-19.16-37.79,0-69.03,29.5-71.82,66.62-.22,2.93,2.07,5.4,5.01,5.4h0ZM142.65,87.4c21.5,0,38.92-17.43,38.92-38.92s-17.43-38.92-38.92-38.92-38.92,17.43-38.92,38.92c0,21.5,17.43,38.92,38.92,38.92ZM179.99,190.07h152.02c3.35,0,5.95-2.81,5.7-6.14-3.17-42.23-38.71-75.8-81.71-75.8s-78.54,33.57-81.71,75.8c-.25,3.34,2.36,6.14,5.7,6.14h0ZM351.74,169.42h84.42c2.94,0,5.23-2.47,5.01-5.4-2.78-37.11-34.02-66.62-71.82-66.62-18.77,0-35.93,7.28-48.79,19.16,15.45,13.58,26.65,31.96,31.17,52.86ZM369.35,87.4c21.5,0,38.92-17.43,38.92-38.92s-17.43-38.92-38.92-38.92-38.92,17.43-38.92,38.92,17.43,38.92,38.92,38.92ZM256,98.12c24.46,0,44.29-19.83,44.29-44.29s-19.83-44.29-44.29-44.29-44.29,19.83-44.29,44.29,19.83,44.29,44.29,44.29Z"/>
</svg>