<?xml version="1.0" encoding="UTF-8"?>
<svg id="Layer_1" xmlns="http://www.w3.org/2000/svg" version="1.1" viewBox="0 0 512 512">
  <!-- Generator: Adobe Illustrator 29.8.2, SVG Export Plug-In . SVG Version: 2.1.1 Build 3)  -->
  <defs>
    <style>
      .st0 {
        fill: #34c759;
      }
    </style>
  </defs>
  <path class="st0" d="M440,49.6c-38.4,0-68.8,31.2-68.8,68.8,0,9.6,1.6,18.4,4.8,26.4l-71.2,47.2c-12.8-14.4-31.2-24.8-51.2-27.2l-.8-55.2c27.2-3.2,48-26.4,48-54.4C300.8,24.8,276,0,245.6,0s-55.2,24.8-55.2,55.2c0,27.2,20,50.4,46.4,54.4l.8,55.2c-38.4,3.2-69.6,32-73.6,68.8h-51.2c-4-26.4-27.2-47.2-54.4-47.2-30.4,0-55.2,24.8-55.2,55.2s24.8,55.2,55.2,55.2c28,0,50.4-20.8,54.4-47.2h51.2c2.4,24.8,17.6,45.6,38.4,58.4l-34.4,69.6c-7.2-2.4-15.2-4-23.2-4-38.4,0-68.8,31.2-68.8,68.8s31.2,68.8,68.8,68.8,68.8-31.2,68.8-68.8c0-24-12.8-45.6-31.2-57.6l34.4-69.6c8.8,3.2,17.6,4.8,27.2,4.8,19.2,0,36-6.4,50.4-16.8l39.2,39.2c-6.4,8.8-9.6,20-9.6,31.2,0,30.4,24.8,55.2,55.2,55.2s55.2-24.8,55.2-55.2-24.8-55.2-55.2-55.2c-12.8,0-25.6,4.8-35.2,12.8l-38.4-38.4c11.2-13.6,18.4-30.4,18.4-49.6,0-13.6-3.2-26.4-9.6-36.8l69.6-46.4c12.8,17.6,32.8,28.8,56,28.8,38.4,0,68.8-31.2,68.8-68.8s-31.2-70.4-68.8-70.4h0Z"/>
</svg>