<?xml version="1.0" encoding="UTF-8"?>
<svg id="Layer_1" xmlns="http://www.w3.org/2000/svg" version="1.1" viewBox="0 0 500 500">
  <!-- Generator: Adobe Illustrator 29.8.2, SVG Export Plug-In . SVG Version: 2.1.1 Build 3)  -->
  <defs>
    <style>
      .st0 {
        fill: #34c759;
        fill-rule: evenodd;
      }
    </style>
  </defs>
  <path class="st0" d="M250,237.53h-11.02c-.62,0-1.14-.38-1.33-.97l-4.97-15.29c-.08-.26-.26-.44-.51-.54-4.89-1.88-9.41-4.51-13.41-7.76-.21-.17-.46-.23-.72-.17l-15.74,3.35c-.6.13-1.19-.13-1.5-.67l-11.02-19.08c-.31-.53-.24-1.18.17-1.63l10.76-11.95c.18-.2.25-.44.21-.71-.8-5.13-.8-10.37,0-15.49.04-.26-.03-.51-.21-.71l-10.76-11.95c-.41-.46-.48-1.1-.17-1.64l11.02-19.08c.31-.53.9-.8,1.5-.67l15.74,3.35c.26.06.51,0,.72-.17,4-3.24,8.52-5.88,13.41-7.75.25-.1.43-.28.51-.54l4.97-15.28c.19-.59.71-.97,1.33-.97h22.03c.62,0,1.14.38,1.33.97l4.97,15.29c.08.25.26.44.51.54,4.89,1.88,9.41,4.51,13.41,7.76.21.17.46.23.72.17l15.74-3.35c.6-.13,1.19.13,1.5.67l11.02,19.08c.31.53.24,1.18-.17,1.64l-10.76,11.95c-.18.2-.25.44-.21.71.8,5.13.8,10.36,0,15.49-.04.26.03.51.21.71l10.76,11.95c.41.46.48,1.1.17,1.63l-11.02,19.08c-.31.53-.9.8-1.5.67l-15.73-3.34c-.26-.06-.51,0-.72.17-4,3.24-8.52,5.88-13.42,7.76-.25.1-.43.28-.51.54l-4.96,15.28c-.19.59-.71.97-1.33.97h-11.02ZM229.53,194.84c11.3,11.3,29.63,11.3,40.93,0,11.3-11.3,11.3-29.63,0-40.93-11.3-11.3-29.63-11.3-40.93,0-11.3,11.3-11.3,29.63,0,40.93ZM51.74,329.52c-8.1,0-14.7,6.6-14.7,14.7v53.03c0,8.1,6.6,14.7,14.7,14.7h29.85c.31,0,.57.15.74.41s.17.57.03.84c-.83,1.6-1.72,3.16-2.68,4.67-2.35,3.68-5.14,7.12-8.47,10.28-.17.16-.36.24-.59.24h-9.4c-3.56,0-6.45,2.89-6.45,6.45s2.89,6.45,6.45,6.45h83.19c3.56,0,6.45-2.89,6.45-6.45s-2.89-6.45-6.45-6.45h-9.4c-.23,0-.43-.08-.59-.24-3.33-3.16-6.12-6.6-8.47-10.28-.96-1.51-1.86-3.07-2.68-4.67-.14-.27-.13-.58.03-.84.16-.26.43-.41.74-.41h29.85c8.1,0,14.7-6.6,14.7-14.7v-53.02c0-8.1-6.6-14.7-14.7-14.7h-43.74c-.47,0-.86-.39-.86-.86v-144.71c0-.47.39-.86.86-.86h46.48c.47,0,.86.39.86.86v15.09c0,21.95,8.9,41.73,26.27,54.96l49.57,37.76c3.01,2.29,6.27,3.91,9.63,4.85.38.11.63.44.63.83v31.22c0,.47-.39.86-.86.86h-43.74c-8.1,0-14.7,6.6-14.7,14.7v53.03c0,8.1,6.6,14.7,14.7,14.7h29.85c.31,0,.57.15.74.41.16.26.17.57.03.84-.83,1.6-1.72,3.16-2.68,4.67-2.35,3.68-5.14,7.12-8.47,10.28-.17.16-.36.24-.59.24h-9.4c-3.56,0-6.45,2.89-6.45,6.45s2.89,6.45,6.45,6.45h83.18c3.56,0,6.45-2.89,6.45-6.45s-2.89-6.45-6.45-6.45h-9.4c-.23,0-.43-.08-.59-.24-3.33-3.16-6.12-6.6-8.47-10.28-.96-1.51-1.86-3.07-2.68-4.67-.14-.27-.13-.58.03-.84.16-.26.43-.41.73-.41h29.85c8.1,0,14.7-6.6,14.7-14.7v-53.02c0-8.1-6.6-14.7-14.7-14.7h-43.74c-.47,0-.86-.39-.86-.86v-31.22c0-.39.25-.72.63-.83,3.36-.94,6.61-2.55,9.63-4.85l49.58-37.76c17.38-13.24,26.27-33.01,26.27-54.96v-15.09c0-.47.39-.86.86-.86h46.48c.47,0,.86.39.86.86v144.71c0,.47-.39.86-.86.86h-43.74c-8.1,0-14.7,6.6-14.7,14.7v53.03c0,8.1,6.6,14.7,14.7,14.7h29.85c.31,0,.57.15.73.41.16.26.17.57.03.84-.83,1.6-1.72,3.16-2.68,4.67-2.35,3.68-5.14,7.12-8.47,10.28-.17.16-.36.24-.59.24h-9.4c-3.56,0-6.45,2.89-6.45,6.45s2.89,6.45,6.45,6.45h83.18c3.56,0,6.45-2.89,6.45-6.45s-2.89-6.45-6.45-6.45h-9.4c-.23,0-.43-.08-.59-.24-3.33-3.16-6.12-6.6-8.47-10.28-.96-1.51-1.86-3.07-2.68-4.67-.14-.27-.13-.58.03-.84.16-.26.43-.41.73-.41h29.85c8.1,0,14.7-6.6,14.7-14.7v-53.02c0-8.1-6.6-14.7-14.7-14.7h-43.74c-.47,0-.86-.39-.86-.86v-152.02c0-3.56-2.89-6.45-6.45-6.45h-53.8c-.47,0-.86-.39-.86-.86v-70.21c0-3.56-2.89-6.45-6.45-6.45-30.64,0-59.36-11.89-81.77-32.28-2.42-2.21-6.16-2.26-8.64-.01-22.54,20.42-51.04,32.29-81.8,32.29-3.56,0-6.45,2.89-6.45,6.45v70.21c0,.47-.39.86-.86.86h-53.8c-3.56,0-6.45,2.89-6.45,6.45v152.02c0,.47-.39.86-.86.86h-43.74ZM107.94,411.95c.36,0,.66.2.8.54,2.09,5.11,4.67,10,7.83,14.56.19.27.21.6.06.89-.15.29-.43.46-.76.46h-26.16c-.33,0-.61-.17-.76-.46s-.13-.62.06-.89c3.16-4.56,5.74-9.45,7.83-14.56.14-.33.44-.54.8-.54h10.32ZM255.16,411.95c.36,0,.66.2.8.54,2.09,5.11,4.67,10,7.83,14.56.19.27.21.6.05.89-.15.29-.43.46-.76.46h-26.16c-.33,0-.61-.17-.76-.46s-.13-.62.05-.89c3.16-4.56,5.74-9.45,7.83-14.56.13-.33.44-.54.8-.54h10.32ZM402.37,411.95c.36,0,.66.2.8.54,2.09,5.11,4.67,10,7.83,14.56.19.27.21.6.05.89-.15.29-.43.46-.76.46h-26.16c-.33,0-.61-.17-.76-.46s-.13-.62.05-.89c3.16-4.56,5.74-9.45,7.83-14.56.14-.33.44-.54.8-.54h10.32Z"/>
</svg>