<?xml version="1.0" encoding="UTF-8"?>
<svg id="Capa_1" xmlns="http://www.w3.org/2000/svg" version="1.1" viewBox="0 0 469.33 469.33">
  <!-- Generator: Adobe Illustrator 29.8.2, SVG Export Plug-In . SVG Version: 2.1.1 Build 3)  -->
  <defs>
    <style>
      .st0 {
        fill: #34c759;
      }
    </style>
  </defs>
  <path class="st0" d="M192.04,341.33c0-82.34,67.01-149.33,149.37-149.33,16.55,0,33.09,2.85,49.2,8.48,1.15.4,2.33.59,3.52.59.17,0,.31,0,.42,0,5.9,0,10.67-4.77,10.67-10.67,0-1.3-.23-2.55-.65-3.71C396.34,81.76,308.26,0,202.71,0,90.94,0,0,90.92,0,202.67s83.35,195.29,189.77,202.03c.21.01.44.02.67.02,3.33,0,6.48-1.55,8.5-4.22,2.17-2.84,2.75-6.58,1.56-9.96-5.61-16.09-8.46-32.66-8.46-49.21ZM146.21,274.21c-2.08,2.08-4.81,3.12-7.54,3.12s-5.46-1.04-7.54-3.12c-4.17-4.17-4.17-10.92,0-15.08l60.88-60.88v-123.58c0-5.9,4.77-10.67,10.67-10.67s10.67,4.77,10.67,10.67v128c0,2.83-1.12,5.54-3.12,7.54l-64,64Z"/>
  <path class="st0" d="M341.33,213.33c-70.58,0-128,57.42-128,128s57.42,128,128,128,128-57.42,128-128-57.42-128-128-128ZM336,330.67h10.67c20.58,0,37.33,16.75,37.33,37.33,0,18.76-13.95,34.18-32,36.79v11.21c0,5.9-4.77,10.67-10.67,10.67s-10.67-4.77-10.67-10.67v-10.67h-21.33c-5.9,0-10.67-4.77-10.67-10.67s4.77-10.67,10.67-10.67h37.33c8.81,0,16-7.18,16-16s-7.19-16-16-16h-10.67c-20.58,0-37.33-16.75-37.33-37.33,0-18.76,13.95-34.18,32-36.79v-11.21c0-5.9,4.77-10.67,10.67-10.67s10.67,4.77,10.67,10.67v10.67h21.33c5.9,0,10.67,4.77,10.67,10.67s-4.77,10.67-10.67,10.67h-37.33c-8.81,0-16,7.18-16,16s7.19,16,16,16Z"/>
</svg>