<?xml version="1.0" encoding="UTF-8"?>
<svg id="Layer_1" xmlns="http://www.w3.org/2000/svg" version="1.1" viewBox="0 0 512 512">
  <!-- Generator: Adobe Illustrator 29.8.2, SVG Export Plug-In . SVG Version: 2.1.1 Build 3)  -->
  <defs>
    <style>
      .st0 {
        fill: #34c759;
        fill-rule: evenodd;
      }
    </style>
  </defs>
  <path class="st0" d="M42.67,53.33v405.33c0,5.89,4.78,10.67,10.67,10.67h405.33c5.89,0,10.67-4.78,10.67-10.67s-4.78-10.67-10.67-10.67H64V53.33c0-5.89-4.78-10.67-10.67-10.67s-10.67,4.78-10.67,10.67ZM160,330.67c0-5.89-4.78-10.67-10.67-10.67h-64c-5.89,0-10.67,4.78-10.67,10.67v96c0,5.89,4.78,10.67,10.67,10.67h64c5.89,0,10.67-4.78,10.67-10.67v-96ZM352,330.67c0-5.89-4.78-10.67-10.67-10.67h-64c-5.89,0-10.67,4.78-10.67,10.67v96c0,5.89,4.78,10.67,10.67,10.67h64c5.89,0,10.67-4.78,10.67-10.67v-96ZM256,192c0-5.89-4.78-10.67-10.67-10.67h-64c-5.89,0-10.67,4.78-10.67,10.67v234.67c0,5.89,4.78,10.67,10.67,10.67h64c5.89,0,10.67-4.78,10.67-10.67v-234.67ZM448,288c0-5.89-4.78-10.67-10.67-10.67h-64c-5.89,0-10.67,4.78-10.67,10.67v138.67c0,5.89,4.78,10.67,10.67,10.67h64c5.89,0,10.67-4.78,10.67-10.67v-138.67ZM243.52,149.33h15.04l28.59,104.96c-12.74,12.25-13.13,32.51-.87,45.25,12.25,12.74,32.51,13.13,45.25.87,6.28-6.04,9.82-14.37,9.81-23.08-.02-1.93-.2-3.86-.53-5.76l26.24-26.24h8.11c5.89,16.66,24.17,25.39,40.84,19.5,16.66-5.89,25.39-24.17,19.5-40.84-5.89-16.66-24.17-25.39-40.84-19.5-9.11,3.22-16.28,10.39-19.5,19.5h-12.48c-2.84-.02-5.56,1.1-7.57,3.09l-25.49,25.49c-5.72-4.69-12.88-7.25-20.27-7.25h-2.45l-29.55-109.44c-1.29-4.79-5.71-8.06-10.67-7.89h-23.15c-5.86-16.67-24.13-25.43-40.81-19.57-9.15,3.22-16.35,10.42-19.57,19.57h-23.15c-4.49,0-8.5,2.82-10.03,7.04l-40.43,111.25c-17.13,4.35-27.49,21.76-23.15,38.89,4.35,17.13,21.76,27.49,38.89,23.15s27.49-21.76,23.15-38.89c-2.32-9.14-8.55-16.78-17.02-20.91l36.05-99.2h15.68c5.86,16.67,24.13,25.43,40.81,19.57,9.15-3.22,16.35-10.42,19.57-19.57h0ZM394.67,42.67c-41.24,0-74.67,33.43-74.67,74.67s33.43,74.67,74.67,74.67,74.67-33.43,74.67-74.67-33.43-74.67-74.67-74.67ZM385.81,79.47l-21.33,32c-2.07,3.2-2.28,7.27-.53,10.67,1.79,3.55,5.41,5.81,9.39,5.87h22.72l-10.67,15.47c-3.7,4.59-2.97,11.3,1.62,15,4.59,3.7,11.3,2.97,15-1.62.41-.51.78-1.07,1.09-1.65l21.33-32c2.07-3.2,2.28-7.27.53-10.67-1.72-3.42-5.14-5.66-8.96-5.87h-22.72l10.67-15.47c2.78-5.19.83-11.66-4.36-14.44-4.52-2.43-10.13-1.29-13.35,2.71h-.43Z"/>
</svg>