<?xml version="1.0" encoding="UTF-8"?>
<svg id="Layer_1" xmlns="http://www.w3.org/2000/svg" version="1.1" viewBox="0 0 512 512">
  <!-- Generator: Adobe Illustrator 29.8.2, SVG Export Plug-In . SVG Version: 2.1.1 Build 3)  -->
  <defs>
    <style>
      .st0 {
        fill: #34c759;
        fill-rule: evenodd;
      }
    </style>
  </defs>
  <path class="st0" d="M442,169.29v47.45c0,4.25-2.93,7.82-7.11,8.65l-25.61,5.05-18.44,44.51,14.54,21.68c2.37,3.53,1.92,8.13-1.09,11.14l-33.55,33.55c-3.01,3.01-7.61,3.46-11.14,1.09l-21.68-14.54-25.4,10.52c-4.66-10.83-10.66-21.21-17.54-30.92,17.7-6.03,33.55-16.04,46.49-28.98,21.88-21.88,35.4-52.09,35.4-85.47s-13.53-63.6-35.4-85.47c-21.87-21.87-52.09-35.4-85.47-35.4s-63.6,13.53-85.47,35.4c-21.87,21.87-35.4,52.09-35.4,85.47s13.53,63.6,35.4,85.47c12.93,12.93,28.79,22.95,46.49,28.98-6.88,9.71-12.88,20.09-17.54,30.92l-25.4-10.52-21.68,14.54c-3.53,2.37-8.13,1.92-11.14-1.09l-33.55-33.55c-3.01-3.01-3.46-7.61-1.09-11.14l14.54-21.68-18.44-44.51-25.61-5.05c-4.17-.82-7.11-4.39-7.11-8.65v-47.45c0-4.25,2.94-7.82,7.11-8.64l25.61-5.05,18.44-44.51-14.54-21.68c-2.37-3.53-1.92-8.13,1.09-11.14l33.55-33.55c3.01-3.01,7.61-3.45,11.14-1.09l21.68,14.54,44.51-18.44,5.05-25.61c.82-4.17,4.39-7.11,8.65-7.11h47.45c4.25,0,7.82,2.94,8.64,7.11l5.05,25.61,44.51,18.44,21.68-14.54c3.53-2.37,8.13-1.92,11.14,1.09l33.55,33.55c3.01,3.01,3.45,7.61,1.09,11.14l-14.54,21.68,18.44,44.51,25.61,5.05c4.17.82,7.11,4.39,7.11,8.64h0ZM256,287.27c-60.01,55.56-69.02,127.54-16,165.95v43.77c0,4.42,3.58,8,8,8s8-3.58,8-8v-107.25c0-4.42,3.58-8,8-8s8,3.58,8,8v63.48c53.02-38.4,44.01-110.38-16-165.95h0ZM203.91,269.12c-3.92,2.25-7.68,4.75-11.27,7.47,7.31,5.55,15.37,10.16,24,13.66-5.11-6.46-9.29-13.66-12.73-21.13ZM245.13,275.54l2.87-2.66v-17.26c-10.43.78-20.4,3.07-29.7,6.65,3.72,8.09,9.11,17.2,16.09,23.96,3.49-3.73,7.08-7.3,10.74-10.69h0ZM248,201.01h-43.15c.66,16.92,3.4,32.68,7.74,46.37,11.14-4.29,23.04-6.98,35.41-7.8v-38.57ZM180.5,265.81c5.47-4.38,11.32-8.29,17.52-11.68-5.2-15.69-8.47-33.79-9.18-53.12h-37.41c1.89,25.1,12.62,47.73,29.08,64.8ZM204.85,185.01h43.15v-38.57c-12.38-.82-24.27-3.51-35.42-7.8-4.34,13.69-7.08,29.45-7.74,46.37h0ZM203.91,116.9c3.45-7.47,7.63-14.67,12.73-21.13-8.63,3.5-16.69,8.11-24,13.66,3.59,2.72,7.35,5.22,11.27,7.47ZM248,91.11c-13.83,4.62-23.84,19.89-29.7,32.65,9.3,3.58,19.27,5.88,29.7,6.65v-39.3ZM151.42,185.01h37.41c.71-19.33,3.98-37.43,9.18-53.12-6.19-3.39-12.05-7.3-17.52-11.68-16.46,17.07-27.19,39.7-29.08,64.8ZM264,239.58c12.38.82,24.27,3.51,35.42,7.8,4.34-13.69,7.08-29.45,7.74-46.37h-43.15v38.57h0ZM308.09,116.9c3.92-2.25,7.68-4.75,11.27-7.47-7.31-5.55-15.37-10.16-24-13.66,5.11,6.46,9.29,13.66,12.73,21.13ZM264,185.01h43.15c-.66-16.92-3.4-32.68-7.74-46.37-11.14,4.29-23.04,6.98-35.42,7.8v38.57h0ZM331.5,120.21c-5.47,4.38-11.33,8.29-17.52,11.68,5.2,15.69,8.47,33.79,9.18,53.12h37.41c-1.89-25.1-12.62-47.73-29.08-64.8h0ZM264,272.88l2.87,2.66c3.66,3.39,7.25,6.96,10.74,10.69,6.98-6.76,12.37-15.86,16.09-23.96-9.3-3.58-19.27-5.88-29.7-6.65v17.26h0ZM264,91.11v39.3c10.43-.78,20.4-3.07,29.7-6.65-5.86-12.75-15.87-28.02-29.7-32.64ZM295.36,290.25c8.63-3.5,16.69-8.11,24-13.66-3.58-2.72-7.35-5.22-11.27-7.47-3.45,7.47-7.63,14.67-12.73,21.13h0ZM360.58,201.01h-37.41c-.71,19.33-3.98,37.43-9.18,53.12,6.19,3.39,12.05,7.3,17.52,11.68,16.46-17.07,27.19-39.7,29.08-64.8h0ZM296.63,458.52c-6.33,2.85-9.94,4.42-13.87,5.98-4.12,1.54-6.22,6.12-4.69,10.25,1.54,4.12,6.12,6.22,10.25,4.69,31.94-11.93,50.77-18.45,78.9-37.92,8.95-6.33,17.07,5.32,7.19,11.44-12.55,8.69-25.4,16.08-39.28,22.84-11.1,5.41-23.02,10.48-36.11,15.56,79.58,34.48,138.02-26.94,134.44-120.17-36.61,11.36-113.27,13.63-136.83,87.34h0ZM229.25,464.5c-3.93-1.55-7.54-3.12-13.87-5.98-23.55-73.71-100.22-75.98-136.83-87.34-3.59,93.22,54.85,154.65,134.44,120.17-13.09-5.08-25.01-10.15-36.11-15.56-13.88-6.76-26.73-14.15-39.28-22.84-9.88-6.12-1.76-17.77,7.19-11.44,28.12,19.48,46.95,25.99,78.9,37.92,4.12,1.54,8.71-.56,10.25-4.69,1.54-4.12-.56-8.71-4.69-10.25h0Z"/>
</svg>