<?xml version="1.0" encoding="UTF-8"?>
<svg id="Layer_1" xmlns="http://www.w3.org/2000/svg" version="1.1" viewBox="0 0 512 512">
  <!-- Generator: Adobe Illustrator 29.8.2, SVG Export Plug-In . SVG Version: 2.1.1 Build 3)  -->
  <defs>
    <style>
      .st0 {
        fill: #34c759;
      }
    </style>
  </defs>
  <path class="st0" d="M472.61,400.45H39.42V132.98c0-5.67,4.62-10.32,10.32-10.32h81.81l3.09,6.09c-.68,1.56-1.33,3.12-1.96,4.71l-18.57,6.04c-8.65,2.81-15.11,9.47-17.74,17.74h-17.21c-2.86,0-5.16,2.32-5.16,5.16v214.81c0,2.86,2.3,5.19,5.16,5.19h353.68c2.86,0,5.19-2.32,5.19-5.19v-214.81c0-2.83-2.32-5.16-5.19-5.16h-17.21c-2.64-8.28-9.1-14.94-17.75-17.74l-18.57-6.04c-.62-1.59-1.28-3.15-1.96-4.71l3.12-6.09h81.78c5.7,0,10.35,4.65,10.35,10.32v267.47h.01ZM208.36,433.76c.91.91,2.15,1.47,3.54,1.47h88.19c1.39,0,2.64-.57,3.54-1.47s1.47-2.15,1.47-3.54v-13.24h-98.22v13.24c0,1.39.58,2.63,1.48,3.54h0ZM506.8,416.98h-185.16v13.24c0,5.92-2.44,11.31-6.32,15.22-3.91,3.88-9.3,6.29-15.22,6.29h-88.19c-5.92,0-11.31-2.41-15.22-6.29-3.88-3.91-6.29-9.3-6.29-15.22v-13.24H5.2c-2.86,0-5.22,2.32-5.22,5.19v23.64c0,15.85,12.98,28.83,28.86,28.83h454.34c15.85,0,28.83-12.98,28.83-28.83v-23.64c0-2.87-2.35-5.19-5.21-5.19h0ZM321.92,174.31c.99-.99,1.59-2.35,1.59-3.83s-.6-2.86-1.59-3.83c-.99-.99-2.35-1.62-3.83-1.62h-10.4v10.86h10.4c1.48,0,2.84-.59,3.83-1.58ZM259.81,174.31c.99-.99,1.59-2.35,1.59-3.83s-.6-2.86-1.59-3.83c-.99-.99-2.35-1.62-3.83-1.62h-10.4v10.86h10.4c1.48,0,2.84-.59,3.83-1.58ZM140.47,103.84c-2.21-4.34-1.39-9.38,2.04-12.81l22.73-22.73c3.43-3.46,8.5-4.25,12.84-2.04l19.73,10.06c3.12,1.59,6.46,1.64,9.64.2,2.75-1.28,5.58-2.47,8.45-3.51,3.26-1.22,5.58-3.63,6.66-6.94l6.86-21.06c1.5-4.62,5.64-7.62,10.52-7.62h32.15c4.85,0,8.99,3,10.49,7.62l6.86,21.06c1.08,3.32,3.4,5.73,6.69,6.94,2.86,1.05,5.67,2.24,8.42,3.51,3.17,1.45,6.52,1.39,9.64-.2l19.76-10.06c4.34-2.21,9.38-1.42,12.81,2.04l22.73,22.73c3.46,3.43,4.25,8.48,2.04,12.81l-10.06,19.76c-1.59,3.12-1.64,6.46-.17,9.64,1.25,2.75,2.44,5.56,3.49,8.42,1.22,3.29,3.63,5.61,6.94,6.69l21.06,6.86c4.62,1.5,7.62,5.64,7.62,10.49v32.15c0,4.88-3,9.01-7.62,10.52l-21.06,6.86c-3.32,1.08-5.73,3.4-6.94,6.66-1.05,2.86-2.24,5.7-3.49,8.45-1.47,3.17-1.42,6.52.17,9.64l10.06,19.73c2.21,4.37,1.42,9.41-2.04,12.84l-22.73,22.73c-3.43,3.43-8.48,4.25-12.81,2.04l-19.76-10.06c-3.12-1.59-6.46-1.64-9.64-.2-2.75,1.28-5.56,2.44-8.42,3.51-3.29,1.19-5.61,3.63-6.69,6.94l-6.86,21.06c-1.5,4.62-5.64,7.62-10.49,7.62h-32.15c-4.88,0-9.01-3-10.52-7.62l-6.86-21.06c-1.08-3.32-3.4-5.75-6.66-6.94-2.86-1.08-5.7-2.24-8.45-3.51-3.17-1.45-6.52-1.39-9.64.2l-19.73,10.06c-4.34,2.21-9.41,1.39-12.84-2.04l-22.73-22.73c-3.43-3.43-4.25-8.48-2.04-12.84l10.06-19.73c1.59-3.12,1.64-6.46.2-9.64-1.28-2.75-2.44-5.56-3.52-8.45-1.22-3.26-3.63-5.58-6.94-6.66l-21.06-6.86c-4.62-1.5-7.62-5.64-7.62-10.52v-32.15c0-4.85,3-8.99,7.62-10.49l21.06-6.86c3.32-1.08,5.73-3.4,6.94-6.66,1.05-2.89,2.24-5.7,3.52-8.45,1.45-3.17,1.39-6.52-.2-9.64l-10.06-19.76ZM291.16,206.76c0,4.56,3.71,8.25,8.28,8.25s8.25-3.68,8.25-8.25v-14.34h10.4c6.04,0,11.54-2.47,15.51-6.43,3.97-3.97,6.43-9.47,6.43-15.51s-2.47-11.54-6.43-15.51c-3.97-4-9.47-6.46-15.51-6.46h-18.65c-4.56,0-8.28,3.71-8.28,8.28v49.97ZM229.06,206.76c0,4.56,3.69,8.25,8.25,8.25s8.28-3.68,8.28-8.25v-14.34h3.17l10.66,18.48c2.3,3.94,7.34,5.27,11.28,3,3.94-2.3,5.27-7.34,2.98-11.28l-7.37-12.78c1.9-1.05,3.66-2.32,5.19-3.85,3.97-3.97,6.43-9.47,6.43-15.51s-2.47-11.54-6.43-15.51c-4-4-9.47-6.46-15.51-6.46h-18.68c-4.56,0-8.25,3.71-8.25,8.28v49.97ZM171.97,206.76c0,4.56,3.69,8.25,8.25,8.25h27.55c4.56,0,8.28-3.68,8.28-8.25s-3.71-8.25-8.28-8.25h-19.28v-8.48h19.28c4.56,0,8.28-3.71,8.28-8.28s-3.71-8.25-8.28-8.25h-19.28v-8.48h19.28c4.56,0,8.28-3.69,8.28-8.25s-3.71-8.28-8.28-8.28h-27.55c-4.56,0-8.25,3.71-8.25,8.28v49.99Z"/>
</svg>