<?xml version="1.0" encoding="UTF-8"?>
<svg id="Capa_1" xmlns="http://www.w3.org/2000/svg" version="1.1" viewBox="0 0 512 512">
  <!-- Generator: Adobe Illustrator 29.8.2, SVG Export Plug-In . SVG Version: 2.1.1 Build 3)  -->
  <defs>
    <style>
      .st0 {
        fill: #34c759;
      }
    </style>
  </defs>
  <path class="st0" d="M159.6,175.67c48.43,0,87.83-39.4,87.83-87.83S208.03,0,159.6,0s-87.83,39.4-87.83,87.83,39.4,87.83,87.83,87.83Z"/>
  <path class="st0" d="M336.33,271h49.27v34.27h-145.67c-8.28,0-15,6.71-15,15v65.33h254.94v-65.33c0-8.29-6.72-15-15-15h-49.27v-34.27h49.27c8.28,0,15-6.72,15-15v-64.27c0-8.28-6.72-15-15-15h-128.53c-8.28,0-15,6.72-15,15v64.27c0,8.28,6.72,15,15,15h0Z"/>
  <path class="st0" d="M194.93,320.27c0-24.82,20.19-45,45-45h37.9c-9.74-56.7-59.39-99.93-118.91-99.6-66.2.36-119.29,55.06-119.29,121.27v88.66h155.3v-65.33Z"/>
  <path class="st0" d="M497,415.6H15c-8.28,0-15,6.72-15,15v66.4c0,8.28,6.72,15,15,15h482c8.28,0,15-6.72,15-15v-66.4c0-8.28-6.72-15-15-15Z"/>
</svg>