<?xml version="1.0" encoding="UTF-8"?>
<svg id="icon" xmlns="http://www.w3.org/2000/svg" version="1.1" viewBox="0 0 512 512">
  <!-- Generator: Adobe Illustrator 29.8.2, SVG Export Plug-In . SVG Version: 2.1.1 Build 3)  -->
  <defs>
    <style>
      .st0 {
        fill: #34c759;
      }
    </style>
  </defs>
  <path class="st0" d="M256,16C123.66,16,16,123.66,16,256s107.66,240,240,240,240-107.66,240-240S388.34,16,256,16ZM357.02,362.18c6-27.25,9.63-57.62,10.54-90.18h95.78c-3.09,40.24-17.68,77.26-40.48,107.86-21.58-7.38-43.58-13.26-65.84-17.68h0ZM89.14,379.86c-22.82-30.59-37.39-67.62-40.48-107.86h95.78c.93,32.56,4.56,62.93,10.54,90.18-22.26,4.42-44.26,10.3-65.86,17.66l.02.02ZM154.98,149.92c-5.98,27.22-9.62,57.55-10.54,90.08H48.66c3.09-40.24,17.66-77.26,40.48-107.84,21.62,7.39,43.58,13.31,65.84,17.76h0ZM186.54,155.33c22.93,3.1,46.11,4.67,69.46,4.67s46.53-1.57,69.46-4.67c5.62,24.94,9.25,53.49,10.21,84.67h-159.33c.96-31.18,4.59-59.73,10.21-84.67ZM176.34,272h159.31c-.96,31.25-4.61,59.82-10.22,84.8-46.03-6.21-92.8-6.21-138.85,0-5.63-24.98-9.28-53.57-10.22-84.8h-.02ZM367.55,240c-.93-32.53-4.56-62.86-10.54-90.08,22.26-4.45,44.24-10.37,65.84-17.78,22.82,30.59,37.39,67.62,40.48,107.86h-95.78ZM399.7,106.06c-16.72,5.18-33.66,9.44-50.77,12.77-7.44-23.6-16.78-43.97-27.7-60.19,29.7,9.84,56.37,26.27,78.46,47.42ZM255.98,48c21.81,0,45.01,28.48,60.78,76-40.34,5.07-81.22,5.07-121.57,0,15.78-47.5,38.98-75.98,60.78-75.98v-.02ZM163.06,118.82c-17.1-3.33-34.05-7.58-50.75-12.77,22.1-21.15,48.77-37.58,78.45-47.42-10.91,16.21-20.26,36.59-27.7,60.18v.02ZM112.3,405.95c16.7-5.18,33.65-9.42,50.74-12.75,7.42,23.58,16.77,43.95,27.66,60.16-29.66-9.84-56.3-26.26-78.4-47.39v-.02ZM256,464c-21.81,0-45.01-28.48-60.78-75.98,40.35-5.07,81.23-5.07,121.57,0-15.78,47.5-38.98,75.98-60.78,75.98ZM348.96,393.18c17.1,3.33,34.05,7.57,50.75,12.75-22.1,21.14-48.75,37.57-78.42,47.41,10.9-16.21,20.24-36.58,27.66-60.16Z"/>
</svg>