<?xml version="1.0" encoding="UTF-8"?>
<svg id="Glyph" xmlns="http://www.w3.org/2000/svg" version="1.1" viewBox="0 0 512 512">
  <!-- Generator: Adobe Illustrator 29.8.2, SVG Export Plug-In . SVG Version: 2.1.1 Build 3)  -->
  <defs>
    <style>
      .st0 {
        fill: #34c759;
      }
    </style>
  </defs>
  <path class="st0" d="M379.73,229.68l-26.85-2.94c-1.84-.21-3.34-1.44-3.95-3.18-4.13-11.87-10.14-22.3-18.37-31.82-1.2-1.39-1.52-3.33-.78-5.01l10.88-24.72c.99-2.24.13-4.86-2-6.1l-37.31-21.54c-2.13-1.23-4.82-.66-6.27,1.31l-16.03,21.89c-1.09,1.47-2.9,2.16-4.7,1.81-12.03-2.3-24.5-2.43-36.77-.11-1.79.34-3.62-.34-4.69-1.81l-15.95-21.78c-1.46-1.97-4.14-2.54-6.27-1.31l-37.31,21.54c-2.13,1.23-2.98,3.86-2,6.1l10.88,24.7c.74,1.66.4,3.58-.78,4.96-8.16,9.47-14.27,20.34-18.29,31.89-.61,1.73-2.1,2.96-3.92,3.17l-26.96,2.94c-2.43.29-4.27,2.35-4.27,4.8v43.09c0,2.45,1.84,4.51,4.27,4.77l26.85,2.94c1.84.21,3.34,1.44,3.95,3.18,4.13,11.87,10.14,22.3,18.37,31.82,1.2,1.39,1.52,3.33.78,5.01l-10.88,24.72c-.99,2.24-.13,4.86,2,6.1l37.31,21.54c2.13,1.23,4.82.66,6.27-1.31l16.03-21.87c1.09-1.47,2.9-2.16,4.7-1.81,12.03,2.3,24.5,2.43,36.77.11,1.79-.34,3.62.34,4.69,1.81l15.95,21.78c1.44,1.97,4.14,2.54,6.27,1.31l37.31-21.54c2.13-1.23,2.98-3.86,2-6.1l-10.88-24.7c-.74-1.66-.4-3.58.78-4.96,8.16-9.47,14.27-20.34,18.29-31.89.61-1.73,2.1-2.96,3.92-3.17l26.96-2.94c2.43-.3,4.27-2.37,4.27-4.82v-43.09c0-2.43-1.84-4.5-4.27-4.77h0ZM256,304c-26.51,0-48-21.49-48-48s21.49-48,48-48,48,21.49,48,48-21.49,48-48,48Z"/>
  <path class="st0" d="M480,80l-55.81,55.81c-3.02,3.02-8.19.88-8.19-3.39v-36.42h-154.29c-88.78,0-164.99,69.87-165.71,158.66-.18,22.21,4.08,43.66,12.64,63.82,1.01,2.37.02,5.07-2.32,6.14l-20.37,9.36c-2.48,1.14-5.49.02-6.56-2.5-11.17-26.08-16.32-53.97-15.28-82.82,3.82-104.1,93.36-184.67,197.52-184.67h154.37V27.58c0-4.27,5.17-6.42,8.19-3.39l55.81,55.81Z"/>
  <path class="st0" d="M447.87,263.28c-3.78,104.1-93.3,184.72-197.47,184.72H96v36.42c0,4.27-5.17,6.42-8.19,3.39l-55.81-55.81,55.81-55.81c3.02-3.02,8.19-.88,8.19,3.39v36.42h154.29c88.82,0,165.02-69.92,165.7-158.74.18-22.21-4.1-43.66-12.67-63.79-1.01-2.37-.03-5.07,2.3-6.14l20.37-9.38c2.48-1.14,5.49-.02,6.56,2.48,11.22,26.1,16.37,53.98,15.33,82.85Z"/>
</svg>