<?xml version="1.0" encoding="UTF-8"?>
<svg id="Capa_1" xmlns="http://www.w3.org/2000/svg" version="1.1" viewBox="0 0 512 512">
  <!-- Generator: Adobe Illustrator 29.8.2, SVG Export Plug-In . SVG Version: 2.1.1 Build 3)  -->
  <defs>
    <style>
      .st0 {
        fill: #34c759;
      }
    </style>
  </defs>
  <path class="st0" d="M75,432v35c0,24.81,20.19,45,45,45h30c24.81,0,45-20.19,45-45v-35h-120Z"/>
  <path class="st0" d="M135,122C60.56,122,0,182.56,0,257c0,40.05,17.62,77.78,48.35,103.52,12.97,10.86,21.69,25.48,25.07,41.48h46.57v-98.79l-30.61-30.61c-5.86-5.86-5.86-15.36,0-21.21s15.36-5.86,21.21,0l24.39,24.39,24.39-24.39c5.86-5.86,15.35-5.86,21.21,0,5.86,5.86,5.86,15.35,0,21.21l-30.61,30.61v98.79h46.57c3.38-16,12.1-30.62,25.07-41.48,30.73-25.74,48.35-63.47,48.35-103.52,0-74.44-60.56-135-135-135Z"/>
  <path class="st0" d="M493.32,398.43c.17-2.22.24-4.33.24-6.43s-.08-4.21-.24-6.43l14.1-13.64c4.95-4.78,6.01-12.32,2.56-18.28l-25-43.3c-3.44-5.96-10.5-8.81-17.12-6.92l-18.89,5.4c-3.56-2.38-7.27-4.52-11.1-6.42l-4.76-19.05c-1.67-6.68-7.67-11.36-14.55-11.36h-50c-6.88,0-12.88,4.68-14.55,11.36l-4.76,19.05c-3.83,1.9-7.54,4.04-11.1,6.42l-18.89-5.4c-6.62-1.89-13.67.96-17.12,6.92l-25,43.3c-3.44,5.96-2.39,13.5,2.56,18.28l14.1,13.64c-.17,2.22-.24,4.33-.24,6.43s.08,4.21.24,6.43l-14.1,13.64c-4.95,4.78-6.01,12.32-2.56,18.28l25,43.3c3.44,5.96,10.5,8.81,17.12,6.92l18.89-5.4c3.56,2.38,7.27,4.52,11.1,6.42l4.76,19.05c1.67,6.68,7.67,11.36,14.55,11.36h50c6.88,0,12.88-4.68,14.55-11.36l4.76-19.05c3.83-1.9,7.54-4.05,11.1-6.42l18.89,5.4c6.62,1.89,13.67-.96,17.12-6.92l25-43.3c3.44-5.96,2.38-13.5-2.56-18.28l-14.1-13.64ZM393.57,437c-24.81,0-45-20.19-45-45s20.19-45,45-45,45,20.19,45,45-20.19,45-45,45Z"/>
  <path class="st0" d="M444.17,174.39c-5.86-5.86-15.36-5.86-21.21,0l-14.39,14.39v-113.79C408.57,33.64,374.92,0,333.57,0h-138.57C153.64,0,120,33.64,120,75v17.69c4.94-.45,9.94-.69,15-.69s10.06.24,15,.69v-17.69c0-24.81,20.19-45,45-45h138.57c24.81,0,45,20.19,45,45v113.79l-14.39-14.39c-5.86-5.86-15.36-5.86-21.21,0s-5.86,15.35,0,21.21l40,40c5.86,5.86,15.36,5.86,21.21,0l40-40c5.86-5.86,5.86-15.35,0-21.21h0Z"/>
</svg>