<?xml version="1.0" encoding="UTF-8"?>
<svg id="Layer_1" xmlns="http://www.w3.org/2000/svg" version="1.1" viewBox="0 0 64 64">
  <!-- Generator: Adobe Illustrator 29.8.2, SVG Export Plug-In . SVG Version: 2.1.1 Build 3)  -->
  <defs>
    <style>
      .st0 {
        fill: #34c759;
      }
    </style>
  </defs>
  <g>
    <path class="st0" d="M48.87,52.73H15.13c-.55,0-1-.45-1-1V4.85c0-1.42,1.15-2.57,2.57-2.57h30.62c1.42,0,2.57,1.15,2.57,2.57v46.88c-.02.55-.46,1-1.02,1ZM16.13,50.73h31.75V4.85c0-.31-.25-.57-.57-.57h-30.62c-.31,0-.57.25-.57.57v45.88h.01Z"/>
    <path class="st0" d="M52.97,61.71H11.03c-.55,0-1-.45-1-1v-9.01c0-.55.45-1,1-1h41.95c.55,0,1,.45,1,1v9.02c0,.55-.45.99-1.01.99ZM12.03,59.71h39.95v-7.01H12.03v7.01Z"/>
    <path class="st0" d="M44.95,47.33h-25.89c-.55,0-1-.45-1-1V6.88c0-.55.45-1,1-1h25.89c.55,0,1,.45,1,1v39.45c0,.55-.45,1-1,1ZM20.06,45.33h23.89V7.88h-23.89v37.45Z"/>
    <path class="st0" d="M58,61.71H6c-.55,0-1-.45-1-1s.45-1,1-1h52c.55,0,1,.45,1,1s-.45,1-1,1Z"/>
  </g>
  <path class="st0" d="M22.6,14.55c-.55,0-1-.45-1-1v-2.74c0-.55.45-1,1-1h1.63c.55,0,1,.45,1,1s-.45,1-1,1h-.63v1.74c0,.55-.45,1-1,1Z"/>
  <path class="st0" d="M41.58,43.04h-1.63c-.55,0-1-.45-1-1s.45-1,1-1h.63v-1.74c0-.55.45-1,1-1s1,.45,1,1v2.74c0,.55-.45,1-1,1Z"/>
  <g>
    <path class="st0" d="M31.5,31.9c-.46,0-.87-.31-.97-.78l-2.17-9.52-1.43.03-2.12,9.49c-.12.54-.66.88-1.2.75-.54-.12-.88-.66-.75-1.2l2.17-9.52c.2-.9.99-1.52,1.91-1.52h1.47c.92,0,1.71.63,1.91,1.52l2.17,9.52c.12.54-.21,1.07-.75,1.2-.1.02-.17.03-.24.03Z"/>
    <path class="st0" d="M30.39,27.03h-5.46c-.55,0-1-.45-1-1s.45-1,1-1h5.46c.55,0,1,.45,1,1s-.45,1-1,1Z"/>
    <path class="st0" d="M37.22,31.9h-2.5c-.55,0-1-.45-1-1v-10.26c0-.55.45-1,1-1h2.5c2.51,0,4.55,2.04,4.55,4.54v3.17c0,2.51-2.04,4.55-4.55,4.55ZM35.72,29.9h1.5c1.4,0,2.55-1.14,2.55-2.55v-3.17c0-1.4-1.14-2.54-2.55-2.54h-1.5v8.26Z"/>
  </g>
</svg>