<?xml version="1.0" encoding="UTF-8"?>
<svg id="Glyph" xmlns="http://www.w3.org/2000/svg" version="1.1" viewBox="0 0 512 512">
  <!-- Generator: Adobe Illustrator 29.8.2, SVG Export Plug-In . SVG Version: 2.1.1 Build 3)  -->
  <defs>
    <style>
      .st0 {
        fill: #34c759;
      }
    </style>
  </defs>
  <path class="st0" d="M64,288c0-26.47,21.53-48,48-48s48,21.53,48,48h32v-52.31c0-11.95,13.77-19.82,24.09-13.81,10.4,6.05,23.91-1.83,23.91-13.87,0-11.62-13.7-19.88-23.91-13.88-10.43,6.14-24.09-1.77-24.09-13.81v-84.31H48C21.53,96,0,117.53,0,144v144h64Z"/>
  <path class="st0" d="M192,448c-26.47,0-48-21.53-48-48s21.53-48,48-48v-32h-52.32c-11.94,0-20.02-13.47-13.81-24.09,6-10.26-1.76-23.91-13.87-23.91-11.59,0-19.85,13.72-13.88,23.91,6.14,10.46-1.7,24.09-13.8,24.09H0v144C0,490.47,21.53,512,48,512h144v-64Z"/>
  <path class="st0" d="M352,320c0,26.47-21.53,48-48,48s-48-21.53-48-48h-32v52.31c0,11.99-13.74,19.85-24.09,13.81-10.33-6.03-23.91,1.82-23.91,13.87,0,11.66,13.68,19.9,23.91,13.88,10.38-6.11,24.09,1.88,24.09,13.81v84.31h144c26.47,0,48-21.53,48-48v-144h-64Z"/>
  <path class="st0" d="M464,0h-160c-8.84,0-16,7.16-16,16v68.31c0,12.13,13.64,19.91,24.09,13.81,10.47-6.11,23.91,1.96,23.91,13.87,0,11.68-13.66,19.93-23.9,13.88-10.39-6.14-24.1,1.88-24.1,13.81v68.31c0,8.84,7.16,16,16,16h48c0,26.47,21.53,48,48,48s48-21.53,48-48h48c8.84,0,16-7.16,16-16V48c0-26.47-21.53-48-48-48Z"/>
</svg>