<?xml version="1.0" encoding="UTF-8"?>
<svg id="Layer_1" xmlns="http://www.w3.org/2000/svg" version="1.1" viewBox="0 0 512 512">
  <!-- Generator: Adobe Illustrator 29.8.2, SVG Export Plug-In . SVG Version: 2.1.1 Build 3)  -->
  <defs>
    <style>
      .st0 {
        fill: #34c759;
      }
    </style>
  </defs>
  <path class="st0" d="M256,114.69c-133.12,0-237.57,122.88-241.66,129.02-6.14,8.19-6.14,18.43,0,26.62,4.1,6.14,108.54,129.02,241.66,129.02s235.52-122.88,241.66-129.02c6.14-8.19,6.14-18.43,0-26.62-6.14-6.14-108.54-129.02-241.66-129.02h0ZM256,354.3c-53.25,0-98.3-45.06-98.3-98.3s45.06-98.3,98.3-98.3,98.3,43.01,98.3,98.3-43.01,98.3-98.3,98.3h0Z"/>
  <path class="st0" d="M256,208.9h-2.05c2.05,4.1,2.05,10.24,2.05,14.34,0,24.58-20.48,45.06-45.06,47.1,6.14,20.48,26.62,32.77,45.06,32.77,26.62,0,47.1-20.48,47.1-47.1s-20.48-47.1-47.1-47.1Z"/>
  <path class="st0" d="M30.72,370.69c-12.29,0-20.48,8.19-20.48,20.48v90.11c0,12.29,8.19,20.48,20.48,20.48h90.11c12.29,0,20.48-8.19,20.48-20.48s-8.19-20.48-20.48-20.48H51.2v-69.63c0-12.29-8.19-20.48-20.48-20.48Z"/>
  <path class="st0" d="M30.72,141.31c12.29,0,20.48-8.19,20.48-20.48V51.2h69.63c12.29,0,20.48-8.19,20.48-20.48s-8.19-20.48-20.48-20.48H30.72c-12.29,0-20.48,8.19-20.48,20.48v90.11c0,12.29,8.19,20.48,20.48,20.48Z"/>
  <path class="st0" d="M481.28,141.31c12.29,0,20.48-8.19,20.48-20.48V30.72c0-12.29-8.19-20.48-20.48-20.48h-90.11c-12.29,0-20.48,8.19-20.48,20.48s8.19,20.48,20.48,20.48h69.63v69.63c0,12.29,8.19,20.48,20.48,20.48Z"/>
  <path class="st0" d="M481.28,501.76c12.29,0,20.48-8.19,20.48-20.48v-90.11c0-12.29-8.19-20.48-20.48-20.48s-20.48,8.19-20.48,20.48v69.63h-69.63c-12.29,0-20.48,8.19-20.48,20.48s8.19,20.48,20.48,20.48h90.11Z"/>
</svg>