<?xml version="1.0" encoding="UTF-8"?>
<svg id="Layer_1" xmlns="http://www.w3.org/2000/svg" version="1.1" viewBox="0 0 24 24">
  <!-- Generator: Adobe Illustrator 29.8.2, SVG Export Plug-In . SVG Version: 2.1.1 Build 3)  -->
  <defs>
    <style>
      .st0 {
        fill: #34c759;
      }
    </style>
  </defs>
  <g id="Icon">
    <path class="st0" d="M12,10.25c-.69,0-1.25-.56-1.25-1.25s.56-1.25,1.25-1.25,1.25.56,1.25,1.25-.56,1.25-1.25,1.25ZM21.05,7.31v2.23c0,5.3-3.23,10.05-8.16,12-.57.23-1.21.23-1.78,0-4.91-1.96-8.12-6.72-8.11-12v-2.23c0-.97.57-1.85,1.47-2.23l6.64-2.66c.57-.23,1.21-.23,1.78,0l6.64,2.66c.92.36,1.52,1.25,1.52,2.23ZM12.75,13.25v-1.62c1.46-.41,2.31-1.93,1.9-3.4-.41-1.46-1.93-2.31-3.4-1.9-1.46.41-2.31,1.93-1.9,3.4.26.92.98,1.64,1.9,1.9v5.37c0,.41.34.74.75.75h2c.41,0,.75-.34.75-.75s-.34-.75-.75-.75h-1.25v-1.5h1.25c.41,0,.75-.34.75-.75s-.34-.75-.75-.75h-1.25Z"/>
  </g>
</svg>