<?xml version="1.0" encoding="UTF-8"?>
<svg id="Layer_1" xmlns="http://www.w3.org/2000/svg" version="1.1" viewBox="0 0 512 512">
  <!-- Generator: Adobe Illustrator 29.8.2, SVG Export Plug-In . SVG Version: 2.1.1 Build 3)  -->
  <defs>
    <style>
      .st0 {
        fill: #34c759;
      }
    </style>
  </defs>
  <path class="st0" d="M0,166.58v258.12c0,21,17.08,38.1,38.1,38.1h435.81c21.01,0,38.1-17.1,38.1-38.1V166.58H0ZM325.35,312.57l-100.6,58.41c-10.34,6.03-23.54-1.39-23.54-13.55v-116.83c0-12.1,13.14-19.61,23.54-13.55l100.6,58.41c10.39,6.05,10.4,21.06,0,27.11Z"/>
  <path class="st0" d="M473.9,49.2H38.1C17.08,49.2,0,66.3,0,87.3v47.93h512v-47.93c0-21-17.08-38.1-38.1-38.1ZM61.49,105.71c-7.41,0-13.41-6.04-13.41-13.49s6-13.49,13.41-13.49,13.42,6.04,13.42,13.49-6.01,13.49-13.42,13.49ZM99.94,105.71c-7.41,0-13.41-6.04-13.41-13.49s6-13.49,13.41-13.49,13.42,6.04,13.42,13.49c0,7.45-6.01,13.49-13.42,13.49ZM138.4,105.71c-7.41,0-13.41-6.04-13.41-13.49s6-13.49,13.41-13.49,13.42,6.04,13.42,13.49-6.01,13.49-13.42,13.49Z"/>
</svg>