<?xml version="1.0" encoding="UTF-8"?>
<svg id="Layer_1" xmlns="http://www.w3.org/2000/svg" version="1.1" viewBox="0 0 512 512">
  <!-- Generator: Adobe Illustrator 29.8.2, SVG Export Plug-In . SVG Version: 2.1.1 Build 3)  -->
  <defs>
    <style>
      .st0 {
        fill: #34c759;
      }
    </style>
  </defs>
  <path class="st0" d="M178.91,390.76c-.24,2.43-.03,4.98.85,7.5,2.17,6.08,7.25,11.03,13.28,12.89,5.6,1.77,11.17.59,12.86-1.25l11.68-12.53c3.38-3.61,4.23-9.39,2.25-14.99-4.89-9.36-11.43-12.74-19.82-14.26l-21.09,22.64Z"/>
  <path class="st0" d="M163.29,328.1l-20.41,21.89c-4.15,4.51-5.34,11.45-3.02,18.09,2.46,7.02,8.32,12.73,15.34,14.87,6.64,1.99,13.31.44,17.49-4l18.9-20.27c4.18-4.5,5.34-11.4,3.02-18.05-2.46-7.05-8.36-12.74-15.34-14.87-5.58-1.78-12.12-1.85-15.97,2.33h0Z"/>
  <path class="st0" d="M122.82,292.08l-18.85,20.24c-4.15,4.48-5.31,11.43-3.02,18.1,2.46,7,8.32,12.71,15.34,14.84,6.63,2.02,13.37.44,15.47-1.78l20.92-22.45c4.18-4.51,5.34-11.45,3.02-18.08-2.47-7.04-8.33-12.73-15.35-14.84-6.46-2.1-13.6-.23-17.53,3.98Z"/>
  <path class="st0" d="M85.95,252.19l-20.89,22.47c-4.18,4.5-5.34,11.4-3.02,18.01,2.43,7.08,8.33,12.77,15.35,14.9,6.63,1.98,13.36.44,15.43-1.81l20.95-22.45v-.02c4.18-4.44,5.34-11.36,3.02-17.99-2.42-7.08-8.32-12.77-15.34-14.88-5.36-1.85-11.86-2.17-15.5,1.77h0Z"/>
  <path class="st0" d="M357.15,118.21c-13.51,7.55-32.29,8.91-50.58,10.22-13.84.94-28.11,1.95-38.37,5.73l-57.03,21.04c-.39.15-.78.24-1.19.3-2.75.43-5.3.8-7.59,1.12-13.89,1.96-15.49,2.55-17.09,6.67-1.46,3.8.14,9.28,4.09,13.93,3.22,3.82,15.82,15.76,41.75,9.62l32.48-4.29c18.19-2.34,32.77,9.51,44.41,19.08l87.34,69.87.07-.03c17.27-7.22,35.25-16.62,50.55-35.04l-88.84-118.23Z"/>
  <path class="st0" d="M236.98,113.97c-5.18.48-11.11,1.13-17.33,1.78-34.42,3.68-53.51,5.12-63.22,3.32l-89.37,116.32c3.29,3.11,6.01,6.34,8.21,9.84,7.47-7.65,18.76-10.38,29.75-7.05,10.79,3.25,19.79,12,23.56,22.85,1.6,4.59,2.1,9.3,1.69,13.81,4.41-.62,9.07-.36,13.65,1.04,10.76,3.23,19.8,12,23.53,22.85,1.62,4.57,2.13,9.27,1.75,13.78,4.41-.62,9.07-.36,13.65,1.07,10.73,3.25,19.73,12,23.5,22.79,2.37,6.84,2.46,13.89.53,20.2,1.1.21,2.22.48,3.35.83,9.63,2.99,17.81,10.9,21.33,20.66,3.36,9.44,1.9,19.36-3.61,26.49l15.85,12.68c3.88,3.08,9.53,3.41,14.81.85,5.72-2.78,10.05-8.41,11.32-14.72.53-2.63.36-5.19-.24-7.55l-20.11-16.09c-2.7-2.17-3.18-6.17-1.07-8.94,2.13-2.75,6.05-3.27,8.77-1.1l24.18,19.38c2.4,1.92,9.28,2.43,15.59-.53,6.63-3.17,11.65-9.7,13.03-16.99,1.33-6.89-.8-13.57-5.55-17.39l-21.87-17.5c-2.72-2.17-3.2-6.18-1.07-8.92,2.11-2.79,6.05-3.3,8.74-1.1l31.79,25.42c4.78,3.8,11.65,4.32,17.99,1.37,6.58-3.15,11.59-9.67,13.01-17.03,1.33-6.89-.8-13.55-5.6-17.4l-31.8-25.39c-2.72-2.19-3.2-6.19-1.07-8.99,2.13-2.74,6.05-3.22,8.78-1.06,0,0,48.29,38.61,48.32,38.61,2.4,1.89,9.24,2.42,15.53-.58,6.64-3.1,11.62-9.62,13.07-16.96,1.31-6.9-.82-13.6-5.6-17.39l-94.51-75.63c-10.84-8.89-22.04-18.1-35.05-16.36l-31.82,4.15c-21.45,5.15-41.69.06-53.39-13.78-7.05-8.33-9.45-18.64-6.29-26.93,4.44-11.5,12.95-12.69,27-14.67,2.1-.27,4.36-.6,6.84-.99l56.45-20.82c3.67-1.37,7.73-2.31,11.94-3.15-14.51-5.61-25.03-5.95-38.93-5.06h0Z"/>
  <path class="st0" d="M114.31,91.92c-10.28-.78-19.67,6.97-33.18,24.56l-34.55,45.01c-12.5,16.24-17.18,26.33-16.15,34.89.83,7.03,5.72,13.93,10.58,17.82l16.39,13.09,89-115.84-11.52-9.22c-7.92-6.31-14.4-9.84-20.57-10.31h0Z"/>
  <path class="st0" d="M399.71,91.8c-6.17.39-12.71,3.83-20.69,10.06l-11.65,9.03,87.77,116.79,11.34-8.82c9.81-7.61,14.82-14.42,15.74-21.45,1.13-8.53-3.4-18.71-15.7-35.16l-33.99-45.44c-13.24-17.78-22.51-25.67-32.82-25.01h0Z"/>
</svg>