<?xml version="1.0" encoding="UTF-8"?>
<svg id="Layer_1" xmlns="http://www.w3.org/2000/svg" version="1.1" viewBox="0 0 512 512">
  <!-- Generator: Adobe Illustrator 29.8.2, SVG Export Plug-In . SVG Version: 2.1.1 Build 3)  -->
  <defs>
    <style>
      .st0 {
        fill: #34c759;
        fill-rule: evenodd;
      }
    </style>
  </defs>
  <path class="st0" d="M247.01,250.76c-28.69,28.69-28.69,75.28,0,103.98s75.28,28.69,103.98,0,28.69-75.28,0-103.98-75.28-28.69-103.98,0h0Z"/>
  <path class="st0" d="M376.43,421.65c1.38,1.38,3.34,2,5.26,1.67,1.92-.33,3.56-1.57,4.39-3.33.16-.34.38-.65.66-.93,0,0,28.58-28.58,28.58-28.58.27-.27.59-.49.93-.66,1.76-.83,3-2.47,3.33-4.39.33-1.92-.29-3.88-1.66-5.26-7.89-7.9-16.22-16.27-21.85-21.93,0,0-.01,0-.02-.02-2.08-2.08-2.59-5.27-1.25-7.89,0-.02.02-.04.03-.06,19.82-39.99,13.09-89.85-20.2-123.15-41.74-41.73-109.51-41.73-151.24,0-41.74,41.74-41.74,109.51,0,151.24,33.3,33.3,83.16,40.03,123.13,20.14.02,0,.03-.02.05-.02,2.65-1.35,5.87-.84,7.98,1.26l21.9,21.9h0ZM404.82,384.02l-24.54,24.54-17.28-17.28c-5.78-5.77-14.61-7.17-21.88-3.47-35.43,17.63-79.7,11.65-109.26-17.91-37.06-37.06-37.06-97.23,0-134.29,37.06-37.06,97.23-37.06,134.29,0,29.56,29.56,35.54,73.84,17.94,109.35-3.65,7.24-2.25,16.01,3.49,21.75,4.53,4.56,10.83,10.89,17.24,17.32h0Z"/>
  <path class="st0" d="M406.84,382l-28.58,28.58c-5.98,5.98-5.98,15.69,0,21.67l21.41,21.41c13.86,13.87,36.38,13.87,50.24,0,13.87-13.86,13.87-36.38,0-50.24,0,0-9.62-9.63-21.39-21.41-2.87-2.88-6.77-4.49-10.84-4.5-4.07,0-7.97,1.61-10.84,4.49h0Z"/>
  <path class="st0" d="M207.34,327.59v.02c.49,1.8.11,3.72-1.02,5.2-1.13,1.48-2.89,2.35-4.76,2.35h-20.27c-9.1,0-16.48-7.39-16.48-16.48v-100.94c0-9.1,7.38-16.48,16.48-16.48h20.98c9.1,0,16.48,7.38,16.48,16.48v34.2c3.67-5.79,8.04-11.28,13.09-16.33,2.16-2.17,4.41-4.21,6.73-6.12v-36.81c0-9.1,7.38-16.48,16.48-16.48h20.98c9.1,0,16.48,7.38,16.48,16.48v15.36c10.87-.74,21.84.38,32.39,3.36,1.81.51,3.75.14,5.24-.99,1.5-1.13,2.38-2.9,2.38-4.78v-121.73c0-31.99-25.93-57.93-57.93-57.93H108.98c-31.99,0-57.93,25.93-57.93,57.93v343.57c0,31.99,25.94,57.93,57.93,57.93h165.63c31.99,0,57.93-25.94,57.93-57.93v-27.63c0-1.88-.88-3.65-2.38-4.78-1.5-1.13-3.44-1.5-5.25-.98-32.01,9.08-67.87,1.01-93.05-24.17-12.16-12.16-20.33-26.81-24.51-42.31h0ZM149.7,438.15h84.18c3.31,0,5.99-2.68,5.99-5.99s-2.68-5.99-5.99-5.99h-84.18c-3.31,0-5.99,2.69-5.99,5.99s2.68,5.99,5.99,5.99ZM145,241.71c0-9.1-7.38-16.48-16.48-16.48h-20.98c-9.1,0-16.48,7.38-16.48,16.48v76.97c0,9.1,7.39,16.48,16.48,16.48h20.98c9.1,0,16.48-7.39,16.48-16.48v-76.97ZM240.85,77.21h12.29c3.31,0,5.99-2.69,5.99-5.99s-2.68-5.99-5.99-5.99h-12.29c-3.31,0-5.99,2.68-5.99,5.99s2.68,5.99,5.99,5.99ZM130.44,77.21h84.18c3.31,0,5.99-2.69,5.99-5.99s-2.68-5.99-5.99-5.99h-84.18c-3.31,0-5.99,2.68-5.99,5.99s2.68,5.99,5.99,5.99Z"/>
</svg>