<?xml version="1.0" encoding="UTF-8"?>
<svg id="Capa_1" xmlns="http://www.w3.org/2000/svg" version="1.1" viewBox="0 0 512 512">
  <!-- Generator: Adobe Illustrator 29.8.2, SVG Export Plug-In . SVG Version: 2.1.1 Build 3)  -->
  <defs>
    <style>
      .st0 {
        fill: #34c759;
      }
    </style>
  </defs>
  <path class="st0" d="M477.96,262.63c-2.06-4.21-2.06-9.05,0-13.26l19.1-39.07c10.63-21.75,2.21-47.68-19.18-59.02l-38.41-20.38c-4.14-2.2-6.98-6.11-7.8-10.73l-7.51-42.83c-4.18-23.85-26.24-39.87-50.21-36.48l-43.05,6.09c-4.65.66-9.24-.84-12.61-4.1l-31.25-30.23c-17.4-16.83-44.66-16.83-62.06,0l-31.25,30.24c-3.37,3.26-7.97,4.75-12.61,4.1l-43.05-6.09c-23.97-3.39-46.03,12.63-50.21,36.48l-7.51,42.83c-.81,4.62-3.65,8.53-7.79,10.73l-38.41,20.38c-21.39,11.35-29.81,37.27-19.18,59.02l19.09,39.06c2.06,4.21,2.06,9.05,0,13.26l-19.1,39.06c-10.63,21.75-2.21,47.68,19.18,59.02l38.41,20.38c4.14,2.2,6.99,6.11,7.8,10.73l7.51,42.83c3.81,21.71,22.42,36.93,43.82,36.93,2.11,0,4.24-.15,6.39-.45l43.05-6.09c4.64-.66,9.24.84,12.61,4.1l31.25,30.23c8.7,8.42,19.86,12.63,31.03,12.63,11.16,0,22.33-4.21,31.03-12.62l31.25-30.23c3.37-3.26,7.97-4.75,12.61-4.1l43.05,6.09c23.98,3.39,46.02-12.63,50.21-36.48l7.51-42.83c.81-4.62,3.65-8.53,7.8-10.73l38.41-20.38c21.39-11.35,29.81-37.27,19.18-59.02l-19.1-39.07ZM196.94,123.12c29.85,0,54.14,24.29,54.14,54.14s-24.29,54.14-54.14,54.14-54.14-24.29-54.14-54.14,24.29-54.14,54.14-54.14ZM169,363.89c-2.88,2.88-6.66,4.33-10.44,4.33s-7.56-1.44-10.44-4.33c-5.77-5.77-5.77-15.11,0-20.88l194.89-194.89c5.77-5.77,15.11-5.77,20.88,0,5.77,5.77,5.77,15.12,0,20.88l-194.89,194.89ZM315.06,388.89c-29.85,0-54.14-24.29-54.14-54.14s24.29-54.14,54.14-54.14,54.14,24.29,54.14,54.14-24.29,54.14-54.14,54.14Z"/>
  <path class="st0" d="M315.06,310.14c-13.57,0-24.61,11.04-24.61,24.61s11.04,24.61,24.61,24.61,24.61-11.04,24.61-24.61-11.04-24.61-24.61-24.61Z"/>
  <path class="st0" d="M196.94,152.65c-13.57,0-24.61,11.04-24.61,24.61s11.04,24.61,24.61,24.61,24.61-11.04,24.61-24.61c0-13.57-11.04-24.61-24.61-24.61Z"/>
</svg>