<?xml version="1.0" encoding="UTF-8"?>
<svg id="Layer_1" xmlns="http://www.w3.org/2000/svg" version="1.1" viewBox="0 0 100 100">
  <!-- Generator: Adobe Illustrator 29.8.2, SVG Export Plug-In . SVG Version: 2.1.1 Build 3)  -->
  <defs>
    <style>
      .st0 {
        fill: #34c759;
      }
    </style>
  </defs>
  <path class="st0" d="M93.11,69.1c4,2.27,5.49,7.13,3.5,11.66-1.4,3.39-3.44,6.37-5.92,8.84-6.9,6.9-17.17,9.85-26.08,6.53-13.74-5.04-26.39-13.01-37.15-23.77-10.75-10.75-18.53-23.32-23.57-37.05C-.62,23.2,6.33,8.62,19.28,3.31c3.74-1.56,7.78-.81,10.29,1.7.52.52.99,1.13,1.36,1.8l6.01,10.9c1.79,3.2,1.47,7.33-.98,10.65l-7.88,11.02-.22.11c3.1,7.84,7.39,14.51,12.86,19.98,5.44,5.44,12.05,9.71,19.8,12.79l.11-.22,11.02-7.99c3.31-2.33,7.46-2.76,10.65-.98l10.8,6.01Z"/>
</svg>