<?xml version="1.0" encoding="UTF-8"?>
<svg id="Capa_1" xmlns="http://www.w3.org/2000/svg" version="1.1" viewBox="0 0 512 512">
  <!-- Generator: Adobe Illustrator 29.8.2, SVG Export Plug-In . SVG Version: 2.1.1 Build 3)  -->
  <defs>
    <style>
      .st0 {
        fill: #34c759;
      }
    </style>
  </defs>
  <path class="st0" d="M300.14,32.33C293.97,13.57,276.29,0,255.49,0s-38.48,13.57-44.65,32.33c29.24-7.11,60.04-7.11,89.3,0Z"/>
  <path class="st0" d="M321.07,477.02h-131.16c31.38,46.63,99.76,46.66,131.16,0Z"/>
  <path class="st0" d="M446.54,381.34c-20.06-13.37-32.04-35.75-32.04-59.86v-35.47h-132.67c-30.51,0-55.33-24.82-55.33-55.33,0-9.53,2.48-18.94,7.16-27.23l77.16-136.51c-17.23-6.42-35.87-9.93-55.32-9.93-87.67,0-159.01,71.33-159.01,159.01v105.47c0,24.11-11.98,46.49-32.04,59.86-9.99,6.66-15.96,17.81-15.96,29.83,0,19.76,16.08,35.84,35.84,35.84h342.33c19.76,0,35.84-16.08,35.84-35.84,0-12.02-5.97-23.17-15.96-29.83h0Z"/>
  <path class="st0" d="M493.22,218.21l-92.85-164.28c-10.49-18.55-37.27-18.54-47.75,0l-92.85,164.28c-9.46,16.74,2.56,37.8,22.06,37.8h189.34c19.46,0,31.54-21.03,22.06-37.8h0ZM361.5,112c0-8.28,6.72-15,15-15s15,6.72,15,15v40c0,8.28-6.72,15-15,15s-15-6.72-15-15v-40ZM376.5,215.01c-8.28,0-15.01-6.72-15.01-15.01s6.72-15.01,15.01-15.01,15.01,6.72,15.01,15.01-6.72,15.01-15.01,15.01Z"/>
  <path class="st0" d="M110.49,65c-21.51,0-39,17.5-39,39,0,8.28,6.72,15,15,15s15-6.72,15-15c0-4.96,4.04-9,9-9,8.28,0,15-6.72,15-15s-6.72-15-15-15Z"/>
  <path class="st0" d="M110.49,39c8.28,0,15-6.72,15-15s-6.72-15-15-15C58.1,9,15.48,51.62,15.48,104c0,8.28,6.72,15,15,15s15-6.72,15-15c0-35.84,29.16-65,65-65Z"/>
</svg>