<?xml version="1.0" encoding="UTF-8"?>
<svg id="Layer_1" xmlns="http://www.w3.org/2000/svg" version="1.1" viewBox="0 0 96 96">
  <!-- Generator: Adobe Illustrator 29.8.2, SVG Export Plug-In . SVG Version: 2.1.1 Build 3)  -->
  <defs>
    <style>
      .st0 {
        fill: #34c759;
        fill-rule: evenodd;
      }
    </style>
  </defs>
  <path class="st0" d="M20.64,10.85H4.32c-.83,0-1.5.67-1.5,1.5s.67,1.5,1.5,1.5h16.32c.83,0,1.5-.67,1.5-1.5s-.67-1.5-1.5-1.5Z"/>
  <path class="st0" d="M20.64,18.36h-12.49c-.83,0-1.5.67-1.5,1.5s.67,1.5,1.5,1.5h12.49c.83,0,1.5-.67,1.5-1.5s-.67-1.5-1.5-1.5Z"/>
  <path class="st0" d="M20.64,25.86h-6.24c-.83,0-1.5.67-1.5,1.5s.67,1.5,1.5,1.5h6.24c.83,0,1.5-.67,1.5-1.5s-.67-1.5-1.5-1.5Z"/>
  <path class="st0" d="M68.69,12.35v16.82c0,1.66-1.34,3-3,3h-10.98c-1.66,0-3-1.34-3-3V12.35h-25.31v24.66c6.05-1.3,12.63.4,17.33,5.1,7.37,7.36,7.37,19.33,0,26.69-4.7,4.7-11.27,6.4-17.33,5.1v11.25h67.61V12.35h-25.31ZM87.13,75.31h-12.49c-.83,0-1.5.67-1.5,1.5s.67,1.5,1.5,1.5h12.49c.83,0,1.5-.67,1.5-1.5s-.67-1.5-1.5-1.5ZM87.13,67.8h-16.32c-.83,0-1.5.67-1.5,1.5s.67,1.5,1.5,1.5h16.32c.83,0,1.5-.67,1.5-1.5s-.67-1.5-1.5-1.5Z"/>
  <path class="st0" d="M54.71,12.35h10.98v16.82h-10.98V12.35Z"/>
  <path class="st0" d="M14.82,66.14l-11.81,11.81c-.65.64-1.01,1.52-1.01,2.43,0,.81.28,1.58.79,2.2.07.08.37.39.46.46.62.51,1.39.79,2.2.79.91,0,1.79-.36,2.43-1.01l11.81-11.81c-.94-.64-1.83-1.38-2.66-2.21-.83-.83-1.57-1.72-2.21-2.66Z"/>
  <path class="st0" d="M41.6,44.23c6.19,6.19,6.19,16.25,0,22.45-6.19,6.19-16.25,6.19-22.45,0-6.19-6.19-6.19-16.25,0-22.45,6.19-6.19,16.25-6.19,22.45,0Z"/>
</svg>