<?xml version="1.0" encoding="UTF-8"?>
<svg id="Layer_1" xmlns="http://www.w3.org/2000/svg" version="1.1" viewBox="0 0 512 512">
  <!-- Generator: Adobe Illustrator 29.8.2, SVG Export Plug-In . SVG Version: 2.1.1 Build 3)  -->
  <defs>
    <style>
      .st0 {
        fill: #34c759;
      }
    </style>
  </defs>
  <path class="st0" d="M134.01,108.37V5.25c0-2.89,2.35-5.24,5.24-5.24h36.74v38.75c0,2.89,2.35,5.24,5.24,5.24h19.16c2.89,0,5.24-2.35,5.24-5.24V0h36.74C245.26,0,247.61,2.35,247.61,5.24v103.12c0,2.89-2.35,5.24-5.24,5.24h-103.11c-2.9.02-5.25-2.34-5.25-5.23h0ZM471.73,290.64h-112.87c-2.81,0-5.1,2.18-5.24,4.96-2.58,51.68-45.3,92.75-97.6,92.75s-95.02-41.07-97.63-92.75c-.11-2.78-2.44-4.96-5.22-4.96H40.3c-3.12,0-5.67,2.52-5.67,5.64v16.36c0,9.1,5.61,16.84,14.29,19.64l47.57,15.48c1.87,5.22,4,10.32,6.35,15.28l-22.74,44.56c-4.11,8.11-2.64,17.57,3.83,24.01l31.1,31.12c6.46,6.43,15.9,7.94,24.01,3.8l44.59-22.71c4.96,2.32,10.06,4.45,15.28,6.32l15.45,47.57c2.81,8.67,10.54,14.29,19.64,14.29h44.02c9.1,0,16.84-5.61,19.67-14.29l15.45-47.57c5.22-1.87,10.32-3.97,15.28-6.32l44.56,22.71c8.14,4.14,17.57,2.64,24.01-3.8l31.12-31.12c6.43-6.43,7.94-15.9,3.8-24.01l-22.71-44.56c2.35-4.96,4.48-10.06,6.32-15.28l47.59-15.48c8.65-2.81,14.26-10.54,14.26-19.64v-16.36c0-3.12-2.52-5.64-5.64-5.64ZM269.65,113.62h103.12c2.86,0,5.24-2.35,5.24-5.24V5.25c0-2.89-2.38-5.24-5.24-5.24h-36.74v38.75c0,2.89-2.38,5.24-5.24,5.24h-19.16c-2.89,0-5.24-2.35-5.24-5.24V0h-36.74c-2.89,0-5.24,2.35-5.24,5.24v103.12c-.01,2.9,2.35,5.26,5.24,5.26h0ZM371.58,169.15v-38.75h-36.74c-2.89,0-5.24,2.35-5.24,5.24v103.12c0,2.86,2.35,5.24,5.24,5.24h103.1c2.89,0,5.27-2.38,5.27-5.24v-103.12c0-2.89-2.38-5.24-5.27-5.24h-36.71v38.75c0,2.89-2.38,5.24-5.27,5.24h-19.13c-2.89,0-5.25-2.35-5.25-5.24h0ZM204.45,130.4c-2.89,0-5.24,2.35-5.24,5.24v103.12c0,2.86,2.35,5.24,5.24,5.24h103.12c2.89,0,5.24-2.38,5.24-5.24v-103.12c0-2.89-2.35-5.24-5.24-5.24h-36.74v38.75c0,2.89-2.35,5.24-5.24,5.24h-19.16c-2.89,0-5.24-2.35-5.24-5.24v-38.75h-36.74ZM74.06,244.01h103.12c2.89,0,5.24-2.38,5.24-5.24v-103.13c0-2.89-2.35-5.24-5.24-5.24h-36.74v38.75c0,2.89-2.35,5.24-5.24,5.24h-19.16c-2.89,0-5.24-2.35-5.24-5.24v-38.75h-36.74c-2.89,0-5.24,2.35-5.24,5.24v103.12c-.01,2.87,2.35,5.25,5.24,5.25Z"/>
</svg>