<?xml version="1.0" encoding="UTF-8"?>
<svg id="Layer_1" xmlns="http://www.w3.org/2000/svg" version="1.1" viewBox="0 0 512 512">
  <!-- Generator: Adobe Illustrator 29.8.2, SVG Export Plug-In . SVG Version: 2.1.1 Build 3)  -->
  <defs>
    <style>
      .st0 {
        fill: #34c759;
        fill-rule: evenodd;
      }
    </style>
  </defs>
  <path class="st0" d="M154.63,326.72c.82,10.66,9.69,18.85,20.38,18.85h40.51v-20.21c0-12.3,10.01-22.28,22.28-22.28h36.4c12.3,0,22.31,9.98,22.31,22.28v20.21h40.48c10.71,0,19.56-8.19,20.38-18.85l15.59-200.61h-233.92l15.59,200.61ZM302.63,176.74c0-4.54,3.69-8.25,8.25-8.25s8.25,3.71,8.25,8.25v101.68c0,4.56-3.69,8.25-8.25,8.25s-8.25-3.68-8.25-8.25v-101.68ZM247.75,176.74c0-4.54,3.69-8.25,8.25-8.25s8.28,3.71,8.28,8.25v101.68c0,4.56-3.71,8.25-8.28,8.25s-8.25-3.68-8.25-8.25v-101.68ZM192.87,176.74c0-4.54,3.69-8.25,8.25-8.25s8.28,3.71,8.28,8.25v101.68c0,4.56-3.71,8.25-8.28,8.25s-8.25-3.68-8.25-8.25v-101.68ZM392.85,70.04h-66.22v-10.97c0-10.86-4.42-20.72-11.57-27.86-7.14-7.14-17.01-11.59-27.86-11.59h-62.39c-10.86,0-20.72,4.45-27.86,11.59s-11.59,17.01-11.59,27.86v10.97h-66.22c-3.91,0-7.11,3.2-7.11,7.14v25.29c0,3.91,3.2,7.11,7.11,7.11h273.71c3.94,0,7.14-3.2,7.14-7.11v-25.28c.01-3.94-3.2-7.15-7.14-7.15h0ZM310.14,70.04h-108.26v-10.97c0-6.29,2.58-12.05,6.75-16.19,4.14-4.17,9.89-6.75,16.19-6.75h62.39c6.29,0,12.02,2.58,16.19,6.75,4.17,4.14,6.75,9.89,6.75,16.19v10.97h0ZM311.1,434.64c.91,2.21.45,4.62-1.25,6.29l-49.78,49.78c-2.24,2.24-5.92,2.24-8.16,0l-49.78-49.78c-1.67-1.67-2.15-4.08-1.25-6.29.91-2.21,2.95-3.57,5.36-3.57h20.01c3.17,0,5.78-2.61,5.78-5.78v-99.92c0-3.17,2.58-5.78,5.75-5.78h36.4c3.17,0,5.78,2.61,5.78,5.78v99.92c0,3.17,2.58,5.78,5.78,5.78h20.01c2.4-.01,4.45,1.35,5.35,3.57h0ZM510.29,293.64l-49.78,49.75c-2.24,2.27-5.92,2.27-8.16,0l-49.78-49.75c-1.67-1.7-2.15-4.11-1.25-6.29.94-2.21,2.95-3.57,5.36-3.57h20.01c3.17,0,5.78-2.61,5.78-5.78v-99.92c0-3.2,2.58-5.78,5.75-5.78h36.4c3.17,0,5.78,2.58,5.78,5.78v99.92c0,3.17,2.61,5.78,5.78,5.78h20.01c2.38,0,4.42,1.36,5.33,3.57.93,2.18.47,4.59-1.23,6.29h0ZM110.66,287.35c.91,2.18.45,4.59-1.25,6.29l-49.78,49.75c-2.24,2.27-5.92,2.27-8.16,0L1.7,293.64c-1.67-1.7-2.15-4.11-1.25-6.29.91-2.21,2.95-3.57,5.36-3.57h20.01c3.17,0,5.78-2.61,5.78-5.78v-99.92c0-3.2,2.58-5.78,5.75-5.78h36.4c3.17,0,5.78,2.58,5.78,5.78v99.92c0,3.17,2.58,5.78,5.78,5.78h20.01c2.4,0,4.44,1.36,5.34,3.57Z"/>
</svg>