<?xml version="1.0" encoding="UTF-8"?>
<svg id="Capa_1" xmlns="http://www.w3.org/2000/svg" version="1.1" viewBox="0 0 512 512">
  <!-- Generator: Adobe Illustrator 29.8.2, SVG Export Plug-In . SVG Version: 2.1.1 Build 3)  -->
  <defs>
    <style>
      .st0 {
        fill: #34c759;
      }
    </style>
  </defs>
  <path class="st0" d="M0,406h512V16H0v390ZM301,106h30v-30h30v30h90v30h-90v30h-30v-30h-30v-30ZM301,196h90v-30h30v30h30v30h-30v30h-30v-30h-90v-30ZM301,286h30v-30h30v30h90v30h-90v30h-30v-30h-30v-30ZM61,196h31.52c1.95-9.56,5.76-18.43,10.98-26.29l-22.34-22.34,21.21-21.21,22.34,22.34c7.87-5.21,16.74-9.03,26.29-10.98v-31.52h30v31.52c9.56,1.95,18.43,5.76,26.29,10.98l22.34-22.34,21.21,21.21-22.34,22.34c5.21,7.87,9.03,16.74,10.98,26.29h31.52v30h-31.52c-1.95,9.56-5.76,18.43-10.98,26.29l22.34,22.34-21.21,21.21-22.34-22.34c-7.87,5.21-16.74,9.03-26.29,10.98v31.52h-30v-31.52c-9.56-1.95-18.43-5.76-26.29-10.98l-22.34,22.34-21.21-21.21,22.34-22.34c-5.21-7.87-9.03-16.74-10.98-26.29h-31.52v-30Z"/>
  <path class="st0" d="M166,256c24.81,0,45-20.19,45-45s-20.19-45-45-45-45,20.19-45,45,20.19,45,45,45ZM151,196h30v30h-30v-30Z"/>
  <path class="st0" d="M391,466h-45c-19.53,0-36.02-12.58-42.24-30h-95.53c-6.21,17.42-22.71,30-42.24,30h-45v30h270v-30Z"/>
</svg>