<?xml version="1.0" encoding="UTF-8"?>
<svg id="Layer_1" xmlns="http://www.w3.org/2000/svg" version="1.1" viewBox="0 0 512 512">
  <!-- Generator: Adobe Illustrator 29.8.2, SVG Export Plug-In . SVG Version: 2.1.1 Build 3)  -->
  <defs>
    <style>
      .st0 {
        fill: #34c759;
      }
    </style>
  </defs>
  <path class="st0" d="M421.84,465.49c-3.04,11.35-10.29,20.82-20.4,26.65-6.73,3.89-14.21,5.87-21.81,5.87-3.83,0-7.68-.5-11.48-1.52-11.35-3.04-20.82-10.29-26.66-20.41l-100.9-174.78c-8.19.1-16.4-.92-24.46-3.07-23.19-6.21-42.56-21.08-54.57-41.86-12-20.78-15.19-44.99-8.98-68.16h0c2.51-9.32,6.4-18.03,11.54-25.88,1.14-1.74,3.08-2.76,5.19-2.71,2.08.06,3.99,1.19,5.03,3l27.73,48.04,55.25-31.9-27.75-48.04c-1.04-1.8-1.07-4.02-.08-5.86s2.86-3.02,4.94-3.14c9.42-.53,18.9.46,28.19,2.94,47.84,12.82,76.35,62.19,63.55,110.04-2.17,8.01-5.39,15.63-9.58,22.71l100.9,174.76c5.85,10.12,7.39,21.94,4.34,33.3h0ZM320.7,488.1l-31.99-55.41H112.64V40.67c0-5.11,3.31-8.67,6.28-8.67h53.65l4.45,12.72c1.51,4.28,6.11,17.3,19.54,17.3h85.63c13.43,0,18.03-13.03,19.55-17.33l4.44-12.69h53.65c2.97,0,6.28,3.56,6.28,8.67v254.53l24,41.57V40.67c0-18.01-13.58-32.67-30.28-32.67H118.92c-16.7,0-30.28,14.65-30.28,32.67v430.66c0,18.01,13.58,32.66,30.28,32.66h214.48c-4.95-4.57-9.23-9.91-12.69-15.9h0Z"/>
</svg>