<?xml version="1.0" encoding="UTF-8"?>
<svg id="Layer_1" xmlns="http://www.w3.org/2000/svg" version="1.1" viewBox="0 0 510 510">
  <!-- Generator: Adobe Illustrator 29.8.2, SVG Export Plug-In . SVG Version: 2.1.1 Build 3)  -->
  <defs>
    <style>
      .st0 {
        fill: #34c759;
        fill-rule: evenodd;
      }
    </style>
  </defs>
  <path class="st0" d="M318.79,236.09v-81.9h32.3l9.78,25.45c13.54,3.22,26.45,8.57,38.32,15.88l24.91-11.07,29.34,29.34-11.03,24.91c7.31,11.87,12.66,24.78,15.88,38.36l25.41,9.78v41.5l-25.41,9.78c-3.22,13.54-8.61,26.45-15.88,38.32l11.03,24.91-29.34,29.34-24.91-11.03c-11.83,7.31-24.78,12.66-38.32,15.88l-9.78,25.41h-32.3v-81.86c3.76.6,7.61.91,11.53.91,39.99,0,72.42-32.43,72.42-72.42s-32.43-72.38-72.42-72.38c-3.92,0-7.78.31-11.53.91h0ZM302.79,42.65v424.7c0,15.26-12.39,27.65-27.65,27.65H53.96c-15.26,0-27.65-12.39-27.65-27.65V42.65c0-15.26,12.39-27.65,27.65-27.65h221.18c15.26,0,27.65,12.39,27.65,27.65h0ZM109.82,105.41h154.89c4.42,0,8-3.58,8-8s-3.58-8-8-8H109.82c-3.27-8.99-11.9-15.42-22.01-15.42-12.92,0-23.42,10.49-23.42,23.42s10.49,23.42,23.42,23.42c10.11,0,18.74-6.43,22.01-15.42h0ZM219.28,325.79H64.39c-4.42,0-8,3.58-8,8s3.58,8,8,8h154.89c3.27,8.99,11.9,15.42,22.01,15.42,12.92,0,23.41-10.49,23.41-23.42s-10.49-23.42-23.42-23.42c-10.11,0-18.74,6.43-22.01,15.42h0ZM109.82,263h154.89c4.42,0,8-3.58,8-8s-3.58-8-8-8H109.82c-3.27-8.99-11.9-15.41-22.01-15.41-12.92,0-23.42,10.49-23.42,23.41s10.49,23.42,23.42,23.42c10.11,0,18.74-6.43,22.01-15.42ZM219.28,168.21H64.39c-4.42,0-8,3.59-8,8s3.58,8,8,8h154.89c3.27,8.99,11.9,15.41,22.01,15.41,12.92,0,23.41-10.49,23.41-23.41s-10.49-23.42-23.42-23.42c-10.11,0-18.74,6.43-22.01,15.41h0ZM109.82,420.59h154.89c4.42,0,8-3.58,8-8s-3.58-8-8-8H109.82c-3.27-8.99-11.9-15.42-22.01-15.42-12.92,0-23.42,10.49-23.42,23.42s10.49,23.42,23.42,23.42c10.11,0,18.74-6.43,22.01-15.42Z"/>
</svg>