<?xml version="1.0" encoding="UTF-8"?>
<svg id="Capa_1" xmlns="http://www.w3.org/2000/svg" version="1.1" viewBox="0 0 512 512">
  <!-- Generator: Adobe Illustrator 29.8.2, SVG Export Plug-In . SVG Version: 2.1.1 Build 3)  -->
  <defs>
    <style>
      .st0 {
        fill: #34c759;
      }
    </style>
  </defs>
  <ellipse class="st0" cx="256" cy="342" rx="120" ry="50"/>
  <path class="st0" d="M256,482c-35.92,0-70.15-6.02-96.39-16.95-9.39-3.91-17.17-8.19-23.61-12.65v9.6c0,27.61,53.73,50,120,50s120-22.39,120-50v-9.6c-6.44,4.46-14.22,8.73-23.61,12.65-26.24,10.93-60.47,16.95-96.39,16.95Z"/>
  <path class="st0" d="M256,422c-35.92,0-70.15-6.02-96.39-16.95-9.39-3.91-17.17-8.19-23.61-12.65v9.6c0,27.61,53.73,50,120,50s120-22.39,120-50v-9.6c-6.44,4.46-14.22,8.73-23.61,12.65-26.24,10.93-60.47,16.95-96.39,16.95Z"/>
  <path class="st0" d="M240.99,262.37c0-.12.01-.24.01-.37,0-27.61-53.73-50-120-50S1,234.39,1,262s50.72,48.72,114.39,49.94c7.59-11.4,20.97-23.31,44.22-32.99,22.55-9.4,51.02-15.15,81.38-16.59Z"/>
  <path class="st0" d="M1,372.4v9.6c0,25.5,45.81,46.54,105,49.61v-29.98c-30.37-1.43-58.84-7.19-81.39-16.59-9.39-3.91-17.17-8.19-23.61-12.65Z"/>
  <path class="st0" d="M106,341.64c-30.37-1.43-58.84-7.19-81.39-16.59-9.39-3.91-17.17-8.19-23.61-12.65v9.6c0,25.5,45.81,46.54,105,49.61v-28.61h.01c0-.33-.01-.67-.01-1,0-.12,0-.24,0-.36Z"/>
  <path class="st0" d="M196,90h15v75c0,8.28,6.72,15,15,15h60c8.28,0,15-6.72,15-15v-75h15c6.07,0,11.54-3.65,13.86-9.26,2.32-5.61,1.04-12.06-3.25-16.35l-60-60c-5.86-5.86-15.35-5.86-21.21,0l-60,60c-4.29,4.29-5.57,10.74-3.25,16.35,2.32,5.61,7.79,9.26,13.86,9.26h0Z"/>
  <path class="st0" d="M16,110h15v55c0,8.28,6.72,15,15,15h60c8.28,0,15-6.72,15-15v-55h15c6.07,0,11.54-3.65,13.86-9.26,2.32-5.61,1.04-12.06-3.25-16.35l-60-60c-5.86-5.86-15.35-5.86-21.21,0L5.39,84.39c-4.29,4.29-5.57,10.74-3.25,16.35,2.32,5.61,7.79,9.26,13.86,9.26Z"/>
  <path class="st0" d="M376,110h15v55c0,8.28,6.72,15,15,15h60c8.28,0,15-6.72,15-15v-55h15c6.07,0,11.54-3.65,13.86-9.26,2.32-5.61,1.04-12.06-3.25-16.35l-60-60c-5.86-5.86-15.36-5.86-21.21,0l-60,60c-4.29,4.29-5.57,10.74-3.25,16.35,2.32,5.61,7.79,9.26,13.86,9.26h0Z"/>
  <path class="st0" d="M511,262c0-27.61-53.73-50-120-50s-120,22.39-120,50c0,.12,0,.24.01.37,30.36,1.43,58.83,7.19,81.38,16.59,23.24,9.68,36.63,21.6,44.21,32.99,63.67-1.22,114.39-23.11,114.39-49.94Z"/>
  <path class="st0" d="M406,401.64v29.98c59.19-3.08,105-24.11,105-49.61v-9.6c-6.44,4.46-14.22,8.73-23.61,12.65-22.55,9.4-51.02,15.15-81.39,16.59Z"/>
  <path class="st0" d="M406,341.64c0,.12,0,.24,0,.36,0,.33,0,.67-.01,1.01h.01s0,28.61,0,28.61c59.19-3.08,105-24.11,105-49.61v-9.6c-6.44,4.46-14.22,8.73-23.61,12.65-22.56,9.4-51.03,15.15-81.39,16.59Z"/>
</svg>