<?xml version="1.0" encoding="UTF-8"?>
<svg id="Glyph" xmlns="http://www.w3.org/2000/svg" version="1.1" viewBox="0 0 512 512">
  <!-- Generator: Adobe Illustrator 29.8.2, SVG Export Plug-In . SVG Version: 2.1.1 Build 3)  -->
  <defs>
    <style>
      .st0 {
        fill: #34c759;
      }
    </style>
  </defs>
  <path class="st0" d="M154.45,357.55c24.39,24.89,24.39,64.71,0,89.6-32.43,32.64-101.33,42.67-109.01,42.67h-2.77c-11.78.1-21.41-9.37-21.51-21.15,0-.99.05-1.98.18-2.96,1.07-7.68,10.67-76.59,42.67-109.01,25.22-24.72,65.7-24.34,90.45.85h0ZM413.44,279.68c-38.6,37.88-81.57,71.04-128,98.77-9.33,5.19-19.83,7.91-30.51,7.89-17.12.1-33.56-6.66-45.65-18.77l-64-64c-20.18-20.13-24.62-51.18-10.88-76.16,27.74-46.43,60.89-89.4,98.77-128C293.65,35.4,383.55,8.28,469.33,28.16c6.86,2.06,12.23,7.43,14.29,14.29,20.55,85.93-6.19,176.31-70.19,237.23h0ZM392.11,119.25c-16.61-16.71-43.63-16.79-60.34-.18-16.71,16.61-16.79,43.63-.18,60.34,16.61,16.71,43.63,16.79,60.34.18.06-.06.12-.12.18-.18,16.72-16.47,17.01-43.34.64-60.16h-.64ZM417.07,305.07c-34.54,32.34-72.12,61.27-112.21,86.4l42.67,42.67c4.03,3.99,9.48,6.22,15.15,6.19,5.6-.02,10.96-2.25,14.93-6.19l14.51-14.51c20.25-20.08,31.62-47.43,31.57-75.95.32-13.12-1.7-26.2-5.97-38.61h-.64ZM91.73,118.61l-14.51,14.51c-8.27,8.32-8.27,21.76,0,30.08l42.67,42.67c24.71-40.04,53.29-77.55,85.33-112-39.4-14.88-83.86-5.18-113.49,24.75h0Z"/>
</svg>