<?xml version="1.0" encoding="UTF-8"?>
<svg id="Layer_1" xmlns="http://www.w3.org/2000/svg" version="1.1" viewBox="0 0 1000 1000">
  <!-- Generator: Adobe Illustrator 29.8.2, SVG Export Plug-In . SVG Version: 2.1.1 Build 3)  -->
  <defs>
    <style>
      .st0 {
        fill: #34c759;
      }
    </style>
  </defs>
  <path class="st0" d="M853.65,389.11c0-49.63-36-89.86-80.34-89.86-.82,0-1.63,0-2.43.05,1.89-8.93,2.83-18.04,2.83-27.17,0-69.53-54.22-125.89-121.11-125.89-24.43,0-48.26,7.63-68.15,21.82-17.35-54.06-65.95-93.06-123.21-93.06-63.47,0-116.3,47.88-127.7,111.19-2.63-.18-5.27-.28-7.94-.28-62.43,0-113,50.75-113,113.34-.04,23.71,7.38,46.84,21.21,66.1-51.06,13.95-87.42,49.95-87.42,92.17,0,54.33,60.19,98.37,134.44,98.37,45.76,0,86.18-16.74,110.45-42.3,25.45,22.21,59.73,35.82,97.46,35.82,29.21.12,57.81-8.33,82.26-24.31,18.94,41.89,60.65,68.81,106.62,68.84,64.66,0,117.07-52.56,117.07-117.39v-.8c33.99-10.47,58.96-45.29,58.96-86.64h0Z"/>
  <path class="st0" d="M515,567.42v249.08c-9.86-2.33-20.14-2.33-30,0v-247.13h3.7c8.8.02,17.6-.64,26.3-1.95Z"/>
  <path class="st0" d="M802.2,766.22h-117c-8.28,0-15-6.72-15-15v-137.48c2.46.13,4.94.2,7.42.2,7.56,0,15.12-.62,22.58-1.86v124.14h101.87c-2.28,9.87-2.24,20.15.13,30h0Z"/>
  <path class="st0" d="M329.79,569.78v181.44c0,8.28-6.72,15-15,15h-117c2.37-9.85,2.41-20.13.13-30h101.87v-161.22c10.12-.96,20.15-2.7,30-5.22Z"/>
  <ellipse class="st0" cx="500" cy="879.87" rx="45.01" ry="45.13"/>
  <ellipse class="st0" cx="134.6" cy="750.94" rx="45.01" ry="45.13"/>
  <ellipse class="st0" cx="865.4" cy="750.94" rx="45.01" ry="45.13"/>
</svg>