<?xml version="1.0" encoding="UTF-8"?>
<svg id="Glyph" xmlns="http://www.w3.org/2000/svg" version="1.1" viewBox="0 0 24 24">
  <!-- Generator: Adobe Illustrator 29.8.2, SVG Export Plug-In . SVG Version: 2.1.1 Build 3)  -->
  <defs>
    <style>
      .st0 {
        fill: #34c759;
      }
    </style>
  </defs>
  <path class="st0" d="M9.31,9.25H1.25v-.25c0-2.07,1.68-3.75,3.75-3.75h3.95v1.33c0,.92.12,1.82.36,2.67ZM22.75,11.89v7.11c0,2.07-1.68,3.75-3.75,3.75H5c-2.07,0-3.75-1.68-3.75-3.75v-8.25h8.59c1.05,2.36,2.99,4.26,5.51,5.26.4.16.82.24,1.25.24s.85-.08,1.25-.24c2.1-.83,3.79-2.29,4.9-4.12ZM5.25,15c0,.41.34.75.75.75h2c.41,0,.75-.34.75-.75s-.34-.75-.75-.75h-2c-.41,0-.75.34-.75.75ZM12.75,18c0-.41-.34-.75-.75-.75h-6c-.41,0-.75.34-.75.75s.34.75.75.75h6c.41,0,.75-.34.75-.75ZM22.75,4.13v2.45c0,3.57-2.14,6.72-5.45,8.04-.22.09-.46.13-.7.13s-.48-.04-.7-.13c-3.31-1.32-5.45-4.47-5.45-8.04v-2.45c0-.92.63-1.7,1.53-1.9l4.2-.93c.28-.06.57-.06.85,0l4.2.93c.9.2,1.53.98,1.53,1.9h-.01ZM19.12,5.93c-.29-.29-.77-.3-1.06,0l-1.7,1.67-.66-.65c-.3-.29-.77-.29-1.06,0s-.29.77,0,1.06l1.19,1.17c.15.14.34.22.53.22s.38-.07.53-.22l2.22-2.19c.3-.29.3-.76,0-1.06h0Z"/>
</svg>