<?xml version="1.0" encoding="UTF-8"?>
<svg id="Layer_1" xmlns="http://www.w3.org/2000/svg" version="1.1" viewBox="0 0 512 512">
  <!-- Generator: Adobe Illustrator 29.8.2, SVG Export Plug-In . SVG Version: 2.1.1 Build 3)  -->
  <defs>
    <style>
      .st0 {
        fill: #34c759;
      }
    </style>
  </defs>
  <path class="st0" d="M404.1,176.9h-11.3v-15.5c0-16.4,13.4-29.8,29.8-29.8s29.8,13.4,29.8,29.8v15.5h-11.4v-15.5c0-10.1-8.3-18.4-18.4-18.4s-18.4,8.3-18.4,18.4v15.5h-.1ZM311.6,341.5h167.9v162.6h-167.9v-162.6ZM321.5,408.4c0,3.1,2.6,5.7,5.7,5.7h136.7c3.2,0,5.7-2.6,5.7-5.7v-50.4c0-3.1-2.5-5.7-5.7-5.7h-136.7c-3.1,0-5.7,2.6-5.7,5.7v50.4ZM321.5,482.8c0,3.2,2.6,5.7,5.7,5.7h136.7c3.2,0,5.7-2.5,5.7-5.7v-50.3c0-3.1-2.5-5.7-5.7-5.7h-136.7c-3.1,0-5.7,2.6-5.7,5.7v50.3ZM311.6,311.9v18.3h199.4v-18.3h-199.4ZM363,287l15.2-94.2c.4-2.7,2.7-4.6,5.3-4.6h78c2.7,0,4.9,1.9,5.3,4.6l15.3,94.2c1.2,6.9-4.6,13.8-11.6,13.6h-95.9c-7,.1-12.9-6.7-11.6-13.6h0ZM418,272.6h9.2c18.9,0,34.4-15.4,34.4-34.4.5-3.9-1.3-7.8-5.7-7.9h-66.6c-3.1,0-5.7,2.6-5.7,5.7-1.1,19.7,14.6,36.6,34.4,36.6h0ZM169.5,156.4c4.5-2.5,8.8-5,13.2-7.9,16.1-2.5,29.3-15,18.1-31.1,1.6-2.2,5.2-6.5,3.7-9.8-1.2-3.7-5.2-4.7-8.7-4-11.4,2.5-20.4,13.3-25.5,23.1-.3.1-.6.2-.9.3V50.7c0-4.7,3.9-8.6,8.6-8.6h132.1c4.7,0,8.5,3.9,8.5,8.6v132.1c0,4.7-3.8,8.5-8.5,8.5h-132.1c-4.7,0-8.6-3.8-8.6-8.5v-26.4h.1ZM258.7,77.2h42.6c7.5-.1,7.4-11.2,0-11.3h-42.6c-7.4.1-7.4,11.2,0,11.3ZM258.7,107.3h42.6c7.5-.1,7.4-11.2,0-11.3h-42.6c-7.4.1-7.4,11.2,0,11.3ZM218.8,137.4h82.5c7.5-.1,7.4-11.2,0-11.3h-82.5c-7.5.1-7.4,11.2,0,11.3ZM218.8,167.5h82.5c7.5-.1,7.4-11.2,0-11.3h-82.5c-7.5.1-7.4,11.2,0,11.3ZM209.3,226.3c-6.2-3.6-16.6-3.8-24.8-3.3l-2.8,6.7c5.1,4,11.5,5.9,18,5.9,6.3-4.2,9.5-7.9,9.6-9.3h0ZM193.6,130.1c-.5-3.6-2.3-6.9-4.8-9.5-3.4,3-6.1,6.6-7.9,10.7.4.8,2.6,4.8,2.9,5.5,3.6-.9,8.2-3.5,9.8-6.7ZM128.3,160.9c15.8-4.5,31.2-11,44.9-19.8-.3-.6-1.2-2.2-1.5-2.8-14.2,4.3-29,6.9-43.9,7.3.2,5,.4,10.1.5,15.3ZM341.3,182.8V50.7c0-17.2-14-31.2-31.2-31.2h-132.1c-17.2,0-31.2,14.1-31.2,31.2v81.9c3.8-.7,7.6-1.4,11.3-2.3V50.7c0-10.9,9-19.9,19.9-19.9h132.1c10.9,0,19.8,9,19.8,19.9v132.1c0,10.9-8.9,19.8-19.8,19.8h-132.1c-23.8-1.7-19.8-23.1-19.8-40.5-3.8,1.6-7.6,3.2-11.4,4.8.4,8.1-1,16.5,1.2,24.3.9,1.6,2.7,2.4,4.1,3.5,9.4,6.7,19.1,12.5,29.6,17.2,9.6-.7,19.7-.3,27.3,2.2h101.1c17.2-.2,31.2-14.1,31.2-31.3ZM94.4,30.8v-4.9c-.8-10.1-9.5-17.9-20-17.9h-8.2c-12.2-.3-21.5,11-20,22.8h48.2ZM59.3,78.1c5.3,1.8,10.6,3,16.2,4-.4-6.7,2.8-13.2,9.5-15.5,4.3-1.6,7.7-5.7,7.5-10.4-.3-4.7-1.4-9.2-1.5-13.9-12.3-1.5-17.3,15.7-15.4,25.5.7,7.6-10.8,8.9-16.3,10.3ZM55,67.2c3.2-.2,6.1-.8,9-2-.3-6,.5-14.5,5.8-22.7.1-.1.2-.2.2-.3h-24.8c-2.2,9,4.8,21.7,9.8,25ZM14.8,92.4c17,3.5,34.8,3.3,51.7-.6-12-2.3-23.2-7.5-34.5-12.2-3.6-1.5-7.4-3-11.3-2.5-3.6.4-6.9,2.6-9.8,4.8-1.7,1.4-5.8,4.5-4.5,7,1.1,2.3,6.5,3.1,8.4,3.5ZM106.7,106.4c-4.3-4.5-9.9-8.1-16.3-10.1-21.2,8.3-43.8,11.7-66.5,9.1-4.9,4.7-8,10.5-9.3,16.8,20.1-3.9,41.2-3.4,60.9,2.2,4.1-12.8,18.3-20,31.2-18ZM122.2,183.1c-3.1-3.3-4.8-7.7-4.9-12.4-.2-7.9-.2-15.8-.6-23.7.1-15.2,1-33.7-20.5-28.6-7.8,2.3-11,10.2-10.7,17.7-.5,8.2-.6,16.4-.3,24.7.2,8.2.7,16.4,1.6,24.5.3,2,1.4,3.7,3.1,4.9,24.3,17.6,52.1,29.4,81.7,34.6.5-1.1,1.5-3.3,1.9-4.4-19.4-9-37.1-21.8-51.3-37.3h0ZM108.7,215.2c-9.9-5.3-20-10.9-28.5-18.3-2.7-2.9-4.4-6.5-4.8-10.3-1.9-16.9-2.1-33.8-1.3-50.7-19.6-5.9-40.8-6.2-60.7-1.6-3,37.3-2.3,75.6,1.8,112.6h99.6c.6-8.7,1-18,1.4-27.8-.1-1.1-6.7-3.5-7.5-3.9h0ZM14.8,258.1c-.3,3.3.3,6.7,1.7,9.8,32.2-.1,67.4,0,99.7,0,1-1,2.2-2.7,2.4-5,.1-2-.6-3.6-1.2-4.7H14.8v-.1ZM229,225.3v46.5h32.5v-46.5h-32.5ZM300.3,297.2v206.9h-112.4v-206.9c0-7.8,6.3-14.1,14.1-14.1h84.2c7.7.1,14.1,6.3,14.1,14.1h0ZM285.9,313.7c0-3.2-2.6-5.7-5.7-5.7h-72.3c-3.2,0-5.7,2.5-5.7,5.7v26.6c0,3.1,2.5,5.7,5.7,5.7h72.3c3.1,0,5.7-2.6,5.7-5.7v-26.6ZM113.9,279.2H42.4c11.8,66,36.1,129.4,70.5,187h11.9c4.9-62.6,1.3-125.7-10.9-187ZM17.7,279.2c-12.4,62.1-16.2,124-11.1,187h12.2c15.5-29,28.3-59.2,38.4-90.1-11.6-31.5-20.5-63.9-26.4-96.9h-13.1ZM15.6,477.5H7.4l.4,5.8h6.9l.9-5.8ZM118.2,483.3h6.5l-.2-5.8h-7.7l1.4,5.8ZM129.6,494.7l-19,.1c-1.9,1.5-3.5,5.2-3.5,7.7,15.9,1.7,31.9,2.1,47.9,1.2-.1-.1-.3-.2-.4-.2l-25-8.8ZM23.6,494.7l-19,.1c-1.8,1.5-3.6,5.2-3.5,7.7,15.9,1.7,31.9,2.1,47.9,1.2-.1-.1-.3-.2-.4-.2l-25-8.8ZM213.6,334.6h61v-15.3h-61v15.3ZM458.2,363.7h-125.3v39h125.3v-39ZM458.2,438.1h-125.3v39h125.3v-39ZM418,261.2h9.2c11.5,0,21-8.5,22.7-19.6h-54.7c1.7,11.1,11.3,19.6,22.8,19.6Z"/>
</svg>