<?xml version="1.0" encoding="UTF-8"?>
<svg xmlns="http://www.w3.org/2000/svg" version="1.1" viewBox="0 0 512 512">
  <!-- Generator: Adobe Illustrator 29.8.2, SVG Export Plug-In . SVG Version: 2.1.1 Build 3)  -->
  <defs>
    <style>
      .st0 {
        fill: #34c759;
        fill-rule: evenodd;
      }
    </style>
  </defs>
  <g id="Layer_1" image-rendering="optimizeQuality" shape-rendering="geometricPrecision" text-rendering="geometricPrecision">
    <g id="Layer_x5F_1">
      <path class="st0" d="M350.03,173.07h-89.08c-4.2,0-7.8-3.6-7.8-8.1s3.6-8.1,7.8-8.1h89.08c10.8,0,18.9-8.1,18.9-18.9V62.99c0-4.5,3.6-8.1,8.1-8.1s8.1,3.6,8.1,8.1v74.99c0,19.2-15.9,35.09-35.09,35.09Z"/>
      <path class="st0" d="M365.03,218.96h-104.08c-4.2,0-7.8-3.6-7.8-8.1,0-4.2,3.6-7.8,7.8-7.8h101.98l69.89-41.09c3.9-2.1,8.7-.9,11.1,3,2.1,3.9.9,8.7-3,10.8l-71.99,41.99c-1.2.9-2.4,1.2-3.9,1.2Z"/>
      <path class="st0" d="M377.03,71.09c-19.2,0-35.09-15.9-35.09-35.09S357.53,0,377.03,0s35.99,15.6,35.99,35.99-15.9,35.09-35.99,35.09Z"/>
      <path class="st0" d="M458.01,185.96c-20.4,0-35.99-15.3-35.99-35.09s15.9-35.99,35.99-35.99,34.79,16.2,34.79,35.99c.3,19.5-15.6,35.09-34.79,35.09Z"/>
      <path class="st0" d="M430.12,263.95h-169.17c-4.2,0-7.8-3.6-7.8-8.1,0-4.2,3.6-7.8,7.8-7.8h169.17c4.2,0,7.8,3.6,7.8,7.8,0,4.5-3.6,8.1-7.8,8.1Z"/>
      <path class="st0" d="M458.01,291.84c-20.1,0-35.99-15.9-35.99-35.99s15.9-35.99,35.99-35.99,34.79,16.2,34.79,35.99-15.6,35.99-34.79,35.99Z"/>
      <path class="st0" d="M377.03,456.81c-4.5,0-8.1-3.6-8.1-7.8v-74.99c0-10.8-8.1-19.2-18.9-19.2h-89.08c-4.2,0-7.8-3.6-7.8-7.8,0-4.5,3.6-8.1,7.8-8.1h89.08c19.2,0,35.09,15.6,35.09,35.09v74.99c0,4.2-3.6,7.8-8.1,7.8Z"/>
      <path class="st0" d="M437.01,350.93c-1.5,0-3-.3-4.2-1.2l-69.89-40.79h-101.98c-4.2,0-7.8-3.6-7.8-8.1,0-4.2,3.6-7.8,7.8-7.8h104.08c1.5,0,2.7.3,3.9.9l71.99,41.99c3.9,2.4,5.1,7.2,3,11.1-1.5,2.4-4.2,3.9-6.9,3.9Z"/>
      <path class="st0" d="M377.03,512c-19.5,0-35.09-15.9-35.09-35.99s15.9-35.09,35.09-35.09,35.99,15.3,35.99,35.09-15.6,35.99-35.99,35.99Z"/>
      <path class="st0" d="M458.01,396.82c-20.1,0-35.99-15.9-35.99-35.99s15.6-34.79,35.99-34.79c19.2,0,34.79,15.6,34.79,34.79.3,20.1-15.6,35.99-34.79,35.99Z"/>
      <path class="st0" d="M260.95,501.8h-54.89c-4.5,0-8.1-3.6-8.1-7.8v-44.09c-27.29-9-52.19-23.4-74.09-43.19l-38.69,23.1c-1.8,1.2-4.2,1.5-6.3.9s-3.6-2.1-4.8-3.9l-53.99-95.08c-.9-1.8-1.2-3.9-.9-6,.6-2.1,2.1-3.9,3.9-4.8l38.69-21.9c-3.3-13.8-4.8-28.49-4.8-43.19s1.5-29.09,4.8-42.89l-38.69-21.9c-1.8-1.2-3.3-3-3.9-4.8-.6-2.1-.3-4.2.9-6.3l53.99-94.78c1.2-2.1,2.7-3.3,4.8-3.9s4.5-.3,6.3.9l38.69,22.8c21.9-19.5,46.79-33.89,74.09-42.89V18c0-4.5,3.6-8.1,8.1-8.1h54.89c4.5,0,8.1,3.6,8.1,8.1v124.18c-60.59,2.7-109.48,52.49-109.48,113.68s48.89,110.98,109.48,113.98v124.18c0,4.2-3.6,7.8-8.1,7.8ZM269.05,149.97v211.76h-2.7c-55.19-4.5-98.68-50.09-98.68-105.88s43.49-101.38,98.68-105.58l2.7-.3Z"/>
    </g>
  </g>
</svg>