<?xml version="1.0" encoding="UTF-8"?>
<svg id="Layer_1" xmlns="http://www.w3.org/2000/svg" version="1.1" viewBox="0 0 48 48">
  <!-- Generator: Adobe Illustrator 29.8.2, SVG Export Plug-In . SVG Version: 2.1.1 Build 3)  -->
  <defs>
    <style>
      .st0 {
        fill: #34c759;
      }
    </style>
  </defs>
  <path class="st0" d="M20,30v2h-4v-2h4ZM27,19v-2h-6v2h6ZM21.41,6h5.18c1.33,0,2.41-1.08,2.41-2.41v-.18c0-.78-.63-1.41-1.41-1.41h-7.18c-.78,0-1.41.63-1.41,1.41v.18c0,1.33,1.08,2.41,2.41,2.41ZM28,30v2h4v-2h-4ZM32.72,2.21c3.03.77,5.28,3.52,5.28,6.79v30c0,3.87-3.13,7-7,7h-14c-3.87,0-7-3.13-7-7V9c0-3.26,2.25-6.02,5.28-6.79.88-.22,1.72.47,1.72,1.38h0c0,2.43,1.97,4.41,4.41,4.41h5.18c2.43,0,4.41-1.97,4.41-4.41h0c0-.9.85-1.6,1.72-1.38ZM29,41c0-.55-.45-1-1-1h-8c-.55,0-1,.45-1,1s.45,1,1,1h8c.55,0,1-.45,1-1ZM34,29c0-.55-.45-1-1-1h-2v-3c0-.55-.45-1-1-1h-5v-3h3c.55,0,1-.45,1-1v-4c0-.55-.45-1-1-1h-8c-.55,0-1,.45-1,1v4c0,.55.45,1,1,1h3v3h-5c-.55,0-1,.45-1,1v3h-2c-.55,0-1,.45-1,1v4c0,.55.45,1,1,1h6c.55,0,1-.45,1-1v-4c0-.55-.45-1-1-1h-2v-2h10v2h-2c-.55,0-1,.45-1,1v4c0,.55.45,1,1,1h6c.55,0,1-.45,1-1v-4Z"/>
</svg>