<?xml version="1.0" encoding="UTF-8"?>
<svg id="Capa_1" xmlns="http://www.w3.org/2000/svg" version="1.1" viewBox="0 0 478.68 478.68">
  <!-- Generator: Adobe Illustrator 29.8.2, SVG Export Plug-In . SVG Version: 2.1.1 Build 3)  -->
  <defs>
    <style>
      .st0 {
        fill: #34c759;
      }
    </style>
  </defs>
  <path class="st0" d="M361.27,312.93l-68.87-27.46-16.13-13.59c-4.26-3.6-10.55-3.34-14.5.6l-22.42,22.3-22.49-22.31c-3.95-3.92-10.24-4.17-14.49-.58l-16.13,13.59-68.88,27.47c-22.18,8.83-22.16,87.37-24.06,94.58h292.07c-1.9-7.19-1.91-85.76-24.1-94.58Z"/>
  <path class="st0" d="M160.47,201.1l12.93-.03c7.99,41.74,36.34,65.49,65.93,65.49s46.78-14.06,58.19-39.99c-8.71,6.83-21.36,13.07-39.05,14.36-1.63,2.42-4.39,4.02-7.52,4.02h-8.27c-5,0-9.06-4.06-9.06-9.06s4.06-9.06,9.06-9.06h8.27c2.93,0,5.53,1.4,7.19,3.56,28.45-2.28,41.83-19.54,47.16-29.28h12.91c7.91,0,14.31-6.42,14.31-14.32v-32.45c0-5.07-2.64-9.51-6.61-12.06-4.78-39.94-41.78-71.12-86.57-71.12s-81.79,31.18-86.57,71.12c-3.97,2.54-6.61,6.99-6.61,12.06v32.45c0,7.9,6.41,14.32,14.31,14.32ZM239.34,87.38c35.25,0,64.57,23.25,69.98,53.58-1.69.64-3.22,1.59-4.53,2.78-8.44-26.65-32.84-42.5-65.44-42.5s-57.02,15.83-65.47,42.48c-1.31-1.18-2.83-2.12-4.51-2.76,5.4-30.33,34.72-53.58,69.98-53.58Z"/>
  <path class="st0" d="M463.16,322.28l-44.35-17.68-10.39-8.75c-2.74-2.32-6.79-2.15-9.34.38l-14.44,14.36-14.48-14.36c-2.55-2.52-6.59-2.69-9.33-.38l-4.95,4.17,9.09,3.62c19.59,7.79,25.39,43.55,28.36,79.55h85.33c-1.22-4.63-1.23-55.22-15.52-60.91Z"/>
  <path class="st0" d="M324.64,220.16v20.9c0,5.09,4.13,9.22,9.22,9.22l8.33-.02c5.15,26.88,23.4,42.17,42.46,42.17s30.13-9.06,37.47-25.75c-5.6,4.4-13.75,8.42-25.15,9.25-1.05,1.56-2.83,2.59-4.85,2.59h-5.32c-3.22,0-5.83-2.61-5.83-5.83s2.61-5.83,5.83-5.83h5.32c1.89,0,3.56.9,4.63,2.29,18.32-1.47,26.93-12.58,30.37-18.85h8.31c5.09,0,9.22-4.13,9.22-9.22v-20.9c0-3.26-1.7-6.12-4.26-7.76-3.08-25.72-26.9-45.8-55.74-45.8s-52.67,20.08-55.74,45.8c-2.56,1.64-4.26,4.5-4.26,7.76ZM384.64,177.05c22.7,0,41.58,14.97,45.06,34.5-1.09.41-2.07,1.02-2.92,1.79-5.44-17.16-21.15-27.37-42.14-27.37s-36.71,10.2-42.15,27.35c-.85-.76-1.82-1.37-2.9-1.78,3.48-19.53,22.36-34.5,45.06-34.5Z"/>
  <path class="st0" d="M113.67,303.65l9.1-3.63-4.95-4.17c-2.74-2.32-6.79-2.15-9.34.38l-14.44,14.36-14.48-14.36c-2.55-2.52-6.59-2.69-9.33-.38l-10.39,8.75-44.35,17.69c-14.28,5.69-14.27,56.26-15.49,60.9h85.33c2.97-35.99,8.75-71.74,28.34-79.54Z"/>
  <path class="st0" d="M43.25,250.27l8.33-.02c5.15,26.88,23.4,42.17,42.46,42.17s30.13-9.06,37.47-25.75c-5.61,4.4-13.75,8.42-25.15,9.25-1.05,1.56-2.83,2.59-4.85,2.59h-5.32c-3.22,0-5.83-2.61-5.83-5.83s2.61-5.83,5.83-5.83h5.32c1.89,0,3.56.9,4.63,2.29,18.32-1.47,26.94-12.58,30.37-18.85h8.31c5.09,0,9.22-4.13,9.22-9.22v-20.9c0-3.26-1.7-6.12-4.26-7.76-3.08-25.72-26.9-45.8-55.74-45.8s-52.67,20.08-55.74,45.8c-2.56,1.64-4.26,4.5-4.26,7.76v20.9c0,5.09,4.13,9.22,9.22,9.22ZM94.04,177.05c22.7,0,41.58,14.97,45.06,34.5-1.09.41-2.07,1.02-2.92,1.79-5.44-17.16-21.14-27.37-42.14-27.37s-36.71,10.2-42.16,27.35c-.84-.76-1.82-1.37-2.9-1.78,3.48-19.53,22.36-34.5,45.06-34.5Z"/>
</svg>