<?xml version="1.0" encoding="UTF-8"?>
<svg id="Capa_1" xmlns="http://www.w3.org/2000/svg" version="1.1" viewBox="0 0 428.16 428.16">
  <!-- Generator: Adobe Illustrator 29.8.2, SVG Export Plug-In . SVG Version: 2.1.1 Build 3)  -->
  <defs>
    <style>
      .st0 {
        fill: #34c759;
      }
    </style>
  </defs>
  <path class="st0" d="M393.8,110.21c-.51-11.26-.51-22.02-.51-32.77,0-8.7-6.66-15.36-15.36-15.36-64,0-112.64-18.43-153.09-57.86-6.14-5.63-15.36-5.63-21.5,0-40.45,39.42-89.09,57.86-153.09,57.86-8.7,0-15.36,6.66-15.36,15.36,0,10.75,0,21.5-.51,32.77-2.05,107.52-5.12,254.98,174.59,316.93l5.12,1.02,5.12-1.02c179.2-61.95,176.64-208.9,174.59-316.93ZM201.8,259.2c-3.07,2.56-6.66,4.1-10.75,4.1h-.51c-4.1,0-8.19-2.05-10.75-5.12l-47.62-52.74,23.04-20.48,37.38,41.47,82.94-78.85,20.99,22.53-94.72,89.09Z"/>
</svg>